# Blender 5.0.1
# www.blender.org
mtllib car44_handpaint_red_reference_v1.mtl
o car.001
v -0.819265 0.470474 0.845847
v 1.609548 0.623586 1.075586
v -0.717176 0.815156 0.851997
v -0.791598 0.614053 0.845903
v -0.562816 0.977672 0.862127
v -0.370813 1.071823 0.872808
v -0.012288 1.112517 0.870972
v 0.090211 1.278934 0.826985
v 0.264711 1.511651 0.780167
v 0.499660 1.599096 0.744118
v 0.808529 1.579926 0.745915
v 1.109463 1.489010 0.752263
v 1.375335 1.263793 0.767804
v 1.574436 1.008769 0.791636
v 1.711790 0.810951 0.847924
v 1.737619 0.648456 0.854357
v 1.743269 0.469897 0.853864
v -0.032551 1.152007 0.740484
v -0.910690 0.481366 0.704218
v -0.971480 0.500153 0.496941
v -1.011552 0.500000 0.262397
v -0.046248 1.099794 0.504409
v -1.022002 0.486879 -0.000000
v -0.204480 1.106201 0.747708
v -0.406770 1.085126 0.733970
v -0.639721 0.997711 0.692736
v -0.812975 0.873849 0.720409
v -0.895968 0.655297 0.709773
v -0.178744 1.086942 0.863167
v -0.805580 0.909186 0.576615
v -0.924119 0.613053 0.466526
v -0.963578 0.605446 0.248512
v -0.980853 0.600167 -0.000000
v -0.054218 1.112125 0.356034
v -0.068293 1.114498 0.175371
v -0.050770 1.106392 -0.000000
v -0.387576 1.055006 0.189529
v -0.428813 1.036415 -0.000000
v -0.308763 1.072329 0.392215
v -0.690071 0.456887 0.954032
v -0.605536 0.735336 0.957841
v -0.671655 0.565431 0.952186
v -0.473920 0.960378 0.952303
v -0.293595 1.049956 0.952411
v -0.006216 1.078376 0.915377
v -0.149755 1.067950 0.937810
v -0.640389 0.455914 0.987708
v -0.517177 0.700079 1.001693
v -0.612964 0.549582 1.003823
v -0.403277 0.877515 1.026211
v -0.265218 0.969483 1.048796
v -0.018370 1.004830 1.062034
v -0.148378 0.998719 1.060438
v -0.568559 0.463328 1.031678
v -0.478869 0.687585 1.042280
v -0.549858 0.551947 1.033133
v -0.378448 0.804153 1.054222
v -0.254484 0.893598 1.077318
v -0.018156 0.917573 1.116438
v -0.144508 0.922133 1.102010
v 0.065873 1.303022 0.630017
v 0.153636 1.496892 0.600798
v 0.179499 1.594133 0.504786
v 0.175274 1.653201 0.171313
v 0.178086 1.654581 -0.000000
v 0.456065 1.698482 0.595852
v 0.476677 1.765050 0.375226
v 0.476800 1.798559 0.169549
v 0.483493 1.803222 -0.000000
v 0.637204 0.498019 1.075597
v 1.615364 0.488325 1.068288
v 1.530076 0.783862 1.089276
v 1.359229 0.892683 1.098489
v 1.142055 0.932878 1.105175
v 0.944537 0.862812 1.110538
v 0.832673 0.700490 1.103106
v 0.762914 0.502497 1.077029
v 0.122739 0.873144 1.109767
v 0.238368 0.751002 1.091343
v 0.305081 0.609337 1.072249
v 0.313903 0.488054 1.070465
v 0.182124 0.965987 0.940843
v 0.328297 0.854953 0.939064
v 0.465606 0.648216 0.956974
v 0.624637 0.674612 0.979484
v 0.746698 0.853120 1.000647
v 0.883704 1.022279 0.987785
v 1.142251 1.071701 0.972886
v 1.375161 1.020576 0.909580
v 1.544979 0.944111 0.870610
v 1.697467 0.760839 0.882068
v 0.133083 0.932884 1.064098
v 0.274470 0.792096 1.044699
v 0.371250 0.636623 1.030882
v 0.446460 0.570245 1.037897
v 0.664904 0.570252 1.062527
v 0.779001 0.753106 1.079510
v 0.910123 0.935780 1.109325
v 1.134185 1.005905 1.080320
v 1.370648 0.950211 1.051874
v 1.562080 0.838528 1.034978
v 1.666064 0.490910 1.024776
v 1.674301 0.656349 1.006902
v 0.567946 1.083576 0.965297
v 0.515603 1.401859 0.883680
v 0.792518 1.407022 0.894013
v 0.775332 1.169456 0.961255
v 0.738248 1.031378 1.011119
v 0.212027 1.190656 0.916414
v 0.988306 1.168255 0.943129
v -0.331970 1.060660 0.925018
v -0.507920 0.966183 0.922235
v -0.651563 0.776391 0.911113
v -0.730332 0.590357 0.906114
v -0.748712 0.464713 0.911989
v -0.014852 1.099966 0.907571
v -0.162057 1.078377 0.906351
v 0.361091 1.137900 0.943194
v 0.239028 1.355674 0.858477
v 0.056101 1.286697 0.728543
v 0.139581 1.444750 0.706814
v 0.233382 1.585324 0.663971
v 0.340390 1.656387 0.682271
v 0.181626 1.410714 0.806421
v 0.011185 1.146524 0.825946
v 0.133978 1.238499 0.895221
v 0.365329 1.392417 0.874446
v 0.126512 1.170976 0.925236
v 0.358664 1.573968 0.769399
v 1.049255 1.336976 0.867813
v 1.190656 1.133396 0.906660
v 1.357359 1.080736 0.874081
v 1.255740 1.198664 0.847008
v 0.266312 1.666263 0.536469
v 0.263638 1.709281 0.346690
v 0.253955 1.728694 0.165103
v 0.255109 1.734840 -0.000000
v 0.177327 1.623638 0.346034
v 0.829399 1.831008 -0.000000
v 1.156592 1.707625 -0.000000
v 1.523019 1.419150 -0.000000
v 1.749921 1.135935 -0.000000
v 1.812948 0.505480 -0.000000
v 0.814334 1.680137 0.603560
v 0.821711 1.759537 0.405863
v 0.821361 1.807976 0.188273
v 1.131023 1.572066 0.608661
v 1.136194 1.641701 0.414811
v 1.130233 1.713124 0.187021
v 1.443277 1.328967 0.633627
v 1.496948 1.383600 0.441047
v 1.508905 1.411650 0.207669
v 1.647149 1.060119 0.675904
v 1.708411 1.096614 0.475504
v 1.739904 1.119557 0.229484
v 1.761987 0.835874 0.737474
v 1.811138 0.855210 0.514833
v 1.844281 0.866376 0.246226
v 1.883283 0.883784 -0.000000
v 1.878549 0.643196 -0.000000
v 1.781952 0.626535 0.747988
v 1.824251 0.639839 0.537115
v 1.852691 0.645054 0.274066
v 1.764345 0.439271 0.723913
v 1.789739 0.471447 0.370252
v 1.778020 0.450696 0.567806
v -0.015165 1.091101 0.616300
v -0.018739 1.103998 0.675586
v 0.017198 1.136912 0.639597
v -0.349793 1.027952 0.565286
v -0.363926 1.060457 0.604403
v -0.602854 0.946272 0.414939
v -0.691137 0.923411 0.447504
v -0.726721 0.871758 0.213902
v -0.842139 0.782149 0.265465
v -0.880961 0.742739 -0.000000
v -0.729420 0.867239 -0.000000
v -0.178310 1.087551 0.640674
v -0.191719 1.067219 0.579702
v -0.533852 1.008336 0.552704
v -0.513390 0.981702 0.506432
v -0.389742 0.470869 1.048437
v -0.336492 0.604013 1.054214
v -0.378639 0.523483 1.039573
v -0.276871 0.673221 1.061305
v -0.203272 0.726326 1.079908
v -0.062961 0.740560 1.094895
v -0.137978 0.743267 1.086329
v 0.020690 0.714181 1.099174
v 0.089340 0.641665 1.089646
v 0.128949 0.557556 1.078310
v 0.134186 0.485549 1.070948
v -0.261197 0.483281 1.059858
v -0.234142 0.550927 1.062793
v -0.255556 0.510012 1.055355
v -0.203851 0.586089 1.066396
v -0.166457 0.613070 1.075848
v -0.095170 0.620302 1.087648
v -0.133284 0.621677 1.083296
v -0.052670 0.606900 1.085636
v -0.017791 0.570056 1.072913
v 0.002333 0.527324 1.067154
v 0.004994 0.490739 1.071295
v 1.432631 0.576756 1.086204
v 1.435774 0.503651 1.090644
v 1.389678 0.663381 1.093603
v 1.297340 0.722196 1.098583
v 1.179963 0.743920 1.110581
v 1.073210 0.706052 1.097966
v 1.012751 0.618321 1.101078
v 0.975047 0.509911 1.079855
v -0.819265 0.470474 -0.845847
v 1.609548 0.623586 -1.075586
v -0.717176 0.815156 -0.851997
v -0.791598 0.614053 -0.845903
v -0.562816 0.977672 -0.862127
v -0.370813 1.071823 -0.872808
v -0.012288 1.112517 -0.870972
v 0.090211 1.278934 -0.826985
v 0.264711 1.511651 -0.780167
v 0.499660 1.599096 -0.744118
v 0.808529 1.579926 -0.745915
v 1.109463 1.489010 -0.752263
v 1.375335 1.263793 -0.767804
v 1.574436 1.008769 -0.791636
v 1.711790 0.810951 -0.847924
v 1.737619 0.648456 -0.854357
v 1.743269 0.469897 -0.853864
v -0.032551 1.152007 -0.740484
v -0.910690 0.481366 -0.704218
v -0.971480 0.500153 -0.496941
v -1.011552 0.500000 -0.262397
v -0.046248 1.099794 -0.504409
v -0.204480 1.106201 -0.747708
v -0.406770 1.085126 -0.733970
v -0.639721 0.997711 -0.692736
v -0.812975 0.873849 -0.720409
v -0.895968 0.655297 -0.709773
v -0.178744 1.086942 -0.863167
v -0.805580 0.909186 -0.576615
v -0.924119 0.613053 -0.466526
v -0.963578 0.605446 -0.248512
v -0.054218 1.112125 -0.356034
v -0.068293 1.114498 -0.175371
v -0.387576 1.055006 -0.189529
v -0.308763 1.072329 -0.392215
v -0.690071 0.456887 -0.954032
v -0.605536 0.735336 -0.957841
v -0.671655 0.565431 -0.952186
v -0.473920 0.960378 -0.952303
v -0.293595 1.049956 -0.952411
v -0.006216 1.078376 -0.915377
v -0.149755 1.067950 -0.937810
v -0.640389 0.455914 -0.987708
v -0.517177 0.700079 -1.001693
v -0.612964 0.549582 -1.003823
v -0.403277 0.877515 -1.026211
v -0.265218 0.969483 -1.048796
v -0.018370 1.004830 -1.062034
v -0.148378 0.998719 -1.060438
v -0.568559 0.463328 -1.031678
v -0.478869 0.687585 -1.042280
v -0.549858 0.551947 -1.033133
v -0.378448 0.804153 -1.054222
v -0.254484 0.893598 -1.077318
v -0.018156 0.917573 -1.116438
v -0.144508 0.922133 -1.102010
v 0.065873 1.303022 -0.630017
v 0.153636 1.496892 -0.600798
v 0.179499 1.594133 -0.504786
v 0.175274 1.653201 -0.171313
v 0.456065 1.698482 -0.595852
v 0.476677 1.765050 -0.375226
v 0.476800 1.798559 -0.169549
v 0.637204 0.498019 -1.075597
v 1.615364 0.488325 -1.068288
v 1.530076 0.783862 -1.089276
v 1.359229 0.892683 -1.098489
v 1.142055 0.932878 -1.105175
v 0.944537 0.862812 -1.110538
v 0.832673 0.700490 -1.103106
v 0.762914 0.502497 -1.077029
v 0.122739 0.873144 -1.109767
v 0.238368 0.751002 -1.091343
v 0.305081 0.609337 -1.072249
v 0.313903 0.488054 -1.070465
v 0.182124 0.965987 -0.940843
v 0.328297 0.854953 -0.939064
v 0.465606 0.648216 -0.956974
v 0.624637 0.674612 -0.979484
v 0.746698 0.853120 -1.000647
v 0.883704 1.022279 -0.987785
v 1.142251 1.071701 -0.972886
v 1.375161 1.020576 -0.909580
v 1.544979 0.944111 -0.870610
v 1.697467 0.760839 -0.882068
v 0.133083 0.932884 -1.064098
v 0.274470 0.792096 -1.044699
v 0.371250 0.636623 -1.030882
v 0.446460 0.570245 -1.037897
v 0.664904 0.570252 -1.062527
v 0.779001 0.753106 -1.079510
v 0.910123 0.935780 -1.109325
v 1.134185 1.005905 -1.080320
v 1.370648 0.950211 -1.051874
v 1.562080 0.838528 -1.034978
v 1.666064 0.490910 -1.024776
v 1.674301 0.656349 -1.006902
v 0.567946 1.083576 -0.965297
v 0.515603 1.401859 -0.883680
v 0.792518 1.407022 -0.894013
v 0.775332 1.169456 -0.961255
v 0.738248 1.031378 -1.011119
v 0.212027 1.190656 -0.916414
v 0.988306 1.168255 -0.943129
v -0.331970 1.060660 -0.925018
v -0.507920 0.966183 -0.922235
v -0.651563 0.776391 -0.911113
v -0.730332 0.590357 -0.906114
v -0.748712 0.464713 -0.911989
v -0.014852 1.099966 -0.907571
v -0.162057 1.078377 -0.906351
v 0.361091 1.137900 -0.943194
v 0.239028 1.355674 -0.858477
v 0.056101 1.286697 -0.728543
v 0.139581 1.444750 -0.706814
v 0.233382 1.585324 -0.663971
v 0.340390 1.656387 -0.682271
v 0.181626 1.410714 -0.806421
v 0.011185 1.146524 -0.825946
v 0.133978 1.238499 -0.895221
v 0.365329 1.392417 -0.874446
v 0.126512 1.170976 -0.925236
v 0.358664 1.573968 -0.769399
v 1.049255 1.336976 -0.867813
v 1.190656 1.133396 -0.906660
v 1.357359 1.080736 -0.874081
v 1.255740 1.198664 -0.847008
v 0.266312 1.666263 -0.536469
v 0.263638 1.709281 -0.346690
v 0.253955 1.728694 -0.165103
v 0.177327 1.623638 -0.346034
v 0.814334 1.680137 -0.603560
v 0.821711 1.759537 -0.405863
v 0.821361 1.807976 -0.188273
v 1.131023 1.572066 -0.608661
v 1.136194 1.641701 -0.414811
v 1.130233 1.713124 -0.187021
v 1.443277 1.328967 -0.633627
v 1.496948 1.383600 -0.441047
v 1.508905 1.411650 -0.207669
v 1.647149 1.060119 -0.675904
v 1.708411 1.096614 -0.475504
v 1.739904 1.119557 -0.229484
v 1.761987 0.835874 -0.737474
v 1.811138 0.855210 -0.514833
v 1.844281 0.866376 -0.246226
v 1.781952 0.626535 -0.747988
v 1.824251 0.639839 -0.537115
v 1.852691 0.645054 -0.274066
v 1.764345 0.439271 -0.723913
v 1.789739 0.471447 -0.370252
v 1.778020 0.450696 -0.567806
v -0.015165 1.091101 -0.616300
v -0.018739 1.103998 -0.675586
v 0.017198 1.136912 -0.639597
v -0.349793 1.027952 -0.565286
v -0.363926 1.060457 -0.604403
v -0.602854 0.946272 -0.414939
v -0.691137 0.923411 -0.447504
v -0.726721 0.871758 -0.213902
v -0.842139 0.782149 -0.265465
v -0.178310 1.087551 -0.640674
v -0.191719 1.067219 -0.579702
v -0.533852 1.008336 -0.552704
v -0.513390 0.981702 -0.506432
v -0.389742 0.470869 -1.048437
v -0.336492 0.604013 -1.054214
v -0.378639 0.523483 -1.039573
v -0.276871 0.673221 -1.061305
v -0.203272 0.726326 -1.079908
v -0.062961 0.740560 -1.094895
v -0.137978 0.743267 -1.086329
v 0.020690 0.714181 -1.099174
v 0.089340 0.641665 -1.089646
v 0.128949 0.557556 -1.078310
v 0.134186 0.485549 -1.070948
v -0.261197 0.483281 -1.059858
v -0.234142 0.550927 -1.062793
v -0.255556 0.510012 -1.055355
v -0.203851 0.586089 -1.066396
v -0.166457 0.613070 -1.075848
v -0.095170 0.620302 -1.087648
v -0.133284 0.621677 -1.083296
v -0.052670 0.606900 -1.085636
v -0.017791 0.570056 -1.072913
v 0.002333 0.527324 -1.067154
v 0.004994 0.490739 -1.071295
v 1.432631 0.576756 -1.086204
v 1.435774 0.503651 -1.090644
v 1.389678 0.663381 -1.093603
v 1.297340 0.722196 -1.098583
v 1.179963 0.743920 -1.110581
v 1.073210 0.706052 -1.097966
v 1.012751 0.618321 -1.101078
v 0.975047 0.509911 -1.079855
vn -0.7441 0.1137 0.6584
vn -0.7468 0.1130 0.6554
vn -0.9038 0.1630 0.3958
vn -0.9047 0.1638 0.3934
vn -0.6720 0.2346 0.7024
vn -0.6289 0.4061 0.6631
vn -0.7656 0.5385 0.3519
vn -0.8856 0.3228 0.3340
vn -0.5031 0.6975 0.5103
vn -0.4535 0.8838 0.1151
vn -0.2708 0.9114 0.3100
vn -0.2483 0.9687 0.0084
vn -0.1400 0.9896 -0.0346
vn -0.1378 0.9619 0.2363
vn -0.3760 0.8222 0.4273
vn -0.5883 0.7040 0.3978
vn -0.5866 0.8094 -0.0289
vn -0.7228 0.6895 -0.0459
vn -0.8623 0.5064 -0.0036
vn -0.9355 0.3118 0.1664
vn -0.9299 0.3293 0.1639
vn -0.9109 0.4015 0.0953
vn -0.9118 0.4003 0.0919
vn -0.9253 0.3793 -0.0000
vn -0.1771 0.9837 -0.0295
vn -0.1837 0.9830 -0.0000
vn -0.3595 0.9331 -0.0000
vn -0.3275 0.9448 -0.0112
vn -0.1610 0.9855 0.0532
vn -0.2728 0.9599 0.0646
vn -0.2405 0.8518 0.4654
vn -0.4817 0.5675 0.6678
vn -0.4274 0.4999 0.7533
vn -0.2037 0.7951 0.5712
vn -0.5680 0.3040 0.7648
vn -0.6113 0.1703 0.7728
vn -0.5602 0.1585 0.8131
vn -0.5140 0.2523 0.8198
vn -0.6242 0.1240 0.7714
vn -0.5914 0.1005 0.8001
vn -0.1941 0.6759 0.7110
vn -0.0872 0.9213 0.3789
vn -0.0616 0.8476 0.5270
vn -0.5610 0.0651 0.8253
vn -0.5187 0.1456 0.8425
vn -0.2756 0.5414 0.7944
vn -0.1165 0.6800 0.7239
vn -0.4916 0.2572 0.8320
vn -0.4135 0.3431 0.8434
vn 0.1977 0.8698 0.4520
vn 0.1474 0.7408 0.6554
vn -0.3305 0.1330 0.9344
vn -0.3096 0.1307 0.9418
vn -0.1481 0.2133 0.9657
vn 0.0248 0.2531 0.9671
vn -0.2425 0.1537 0.9579
vn -0.3192 0.1096 0.9413
vn -0.3123 0.0498 0.9487
vn 0.2573 0.2475 0.9341
vn 0.4344 0.6367 0.6371
vn 0.5067 0.7181 0.4770
vn 0.5910 0.5394 0.5998
vn 0.5758 0.4373 0.6908
vn 0.3439 0.1320 0.9297
vn 0.2549 0.0696 0.9645
vn 0.4947 0.3040 0.8142
vn 0.0980 0.0917 0.9910
vn 0.1155 0.4148 0.9026
vn -0.0429 0.2811 0.9587
vn -0.2198 0.2987 0.9287
vn -0.1161 -0.0139 0.9931
vn -0.1259 -0.0296 0.9916
vn -0.4564 0.2189 0.8624
vn -0.0644 0.0514 0.9966
vn -0.3045 0.4484 0.8404
vn 0.0639 0.1907 0.9796
vn 0.0687 0.6559 0.7517
vn 0.1869 0.2925 0.9378
vn 0.3388 0.6877 0.6421
vn 0.3538 0.2274 0.9073
vn 0.6001 0.5486 0.5822
vn 0.4405 0.0699 0.8950
vn 0.8115 0.2107 0.5450
vn 0.4337 0.0062 0.9010
vn 0.8162 0.0169 0.5775
vn 0.2827 0.5782 0.7653
vn -0.4107 0.5096 0.7561
vn -0.6377 0.4163 0.6481
vn -0.3810 0.6950 0.6098
vn 0.0941 0.8487 0.5204
vn 0.3836 0.8073 0.4484
vn 0.5861 0.6918 0.4219
vn 0.8182 0.4226 0.3898
vn 0.9167 0.1062 0.3851
vn 0.9175 0.0132 0.3974
vn 0.9275 0.0616 0.3687
vn 0.7147 0.3822 0.5858
vn 0.7289 0.2752 0.6268
vn 0.5456 0.5184 0.6585
vn 0.4585 0.4971 0.7366
vn -0.1851 -0.0041 0.9827
vn -0.1087 -0.0149 0.9940
vn -0.0273 0.1344 0.9906
vn -0.1121 0.1435 0.9833
vn -0.1554 -0.0008 0.9879
vn 0.0269 0.2871 0.9575
vn 0.1229 0.2183 0.9681
vn -0.0510 0.3428 0.9380
vn -0.0564 0.0582 0.9967
vn -0.0964 0.0168 0.9952
vn -0.0839 0.1457 0.9858
vn -0.0686 0.2258 0.9718
vn -0.2043 0.3381 0.9187
vn -0.8084 0.5591 0.1842
vn -0.9020 0.4237 -0.0833
vn -0.8662 0.4815 0.1339
vn -0.7916 0.5396 0.2866
vn -0.6666 0.5304 0.5238
vn -0.5443 0.5368 0.6447
vn -0.3509 0.4997 0.7919
vn -0.2495 0.4210 0.8721
vn -0.0334 0.4242 0.9049
vn -0.1116 0.4000 0.9097
vn -0.4248 0.5687 0.7044
vn -0.6038 0.6907 0.3979
vn -0.1773 0.6474 0.7412
vn 0.0206 0.7169 0.6969
vn 0.1248 0.7274 0.6747
vn 0.0699 0.4600 0.8852
vn 0.1484 0.3491 0.9252
vn 0.2457 0.4390 0.8643
vn 0.3450 0.6559 0.6713
vn 0.3811 0.5530 0.7409
vn 0.3760 0.5092 0.7742
vn 0.2681 0.4523 0.8506
vn 0.1668 0.4675 0.8681
vn 0.3412 0.4384 0.8315
vn 0.4849 0.5466 0.6827
vn -0.2542 0.8370 0.4846
vn -0.0956 0.9092 0.4053
vn -0.7071 0.7071 -0.0000
vn -0.6998 0.7110 0.0684
vn -0.5108 0.8566 0.0724
vn -0.5120 0.8590 -0.0000
vn -0.1726 0.9850 -0.0000
vn -0.1655 0.9805 0.1062
vn -0.6861 0.7138 0.1408
vn -0.4875 0.8571 0.1668
vn -0.1336 0.9646 0.2273
vn -0.7176 0.6585 0.2266
vn -0.5048 0.8289 0.2408
vn 0.1396 0.9791 0.1478
vn 0.1400 0.9901 -0.0000
vn 0.1569 0.9466 0.2815
vn 0.1549 0.8805 0.4479
vn 0.4125 0.7992 0.4371
vn 0.4468 0.8515 0.2744
vn 0.4539 0.8796 0.1425
vn 0.4918 0.8707 -0.0000
vn 0.6093 0.6537 0.4487
vn 0.6719 0.6981 0.2474
vn 0.6949 0.7097 0.1157
vn 0.7060 0.7082 -0.0000
vn 0.7230 0.5345 0.4377
vn 0.8256 0.5164 0.2274
vn 0.8475 0.5170 0.1202
vn 0.8463 0.5328 -0.0000
vn 0.8699 0.3205 0.3748
vn 0.9468 0.2582 0.1922
vn 0.9655 0.2264 0.1287
vn 0.9728 0.2317 -0.0000
vn 0.9882 -0.0704 0.1357
vn 0.9849 -0.1475 0.0910
vn 0.9663 -0.0038 0.2574
vn 0.9840 -0.1784 -0.0000
vn 0.9597 -0.0500 0.2767
vn 0.9733 -0.1147 0.1988
vn 0.9526 -0.2975 0.0638
vn 0.9724 -0.2062 0.1094
vn 0.9299 -0.3678 -0.0000
vn -0.3471 0.9039 -0.2500
vn -0.4841 0.7886 -0.3791
vn -0.8387 0.4645 -0.2844
vn -0.0865 0.9158 -0.3921
vn -0.0733 0.8470 -0.5266
vn -0.1349 0.9223 -0.3623
vn -0.0964 0.9433 -0.3177
vn -0.1355 0.8895 -0.4363
vn -0.3286 0.9133 -0.2406
vn -0.5155 0.8375 -0.1813
vn -0.2255 0.9169 -0.3292
vn -0.5736 0.8167 -0.0631
vn -0.7326 0.6799 -0.0327
vn -0.6277 0.7785 -0.0000
vn -0.7454 0.6666 -0.0000
vn -0.1501 0.9826 0.1090
vn -0.2017 0.9728 0.1139
vn -0.4072 0.9122 0.0462
vn -0.3252 0.9374 0.1244
vn -0.4649 0.8854 0.0075
vn -0.8228 0.5683 -0.0000
vn -0.8233 0.5619 0.0801
vn -0.4824 0.8759 -0.0000
vn 0.0054 -0.1072 0.9942
vn 0.0248 -0.1310 0.9911
vn -0.0801 0.1162 0.9900
vn -0.0944 0.0250 0.9952
vn 0.0053 -0.0829 0.9965
vn -0.1341 -0.0465 0.9899
vn -0.1580 -0.0641 0.9854
vn -0.1025 -0.0540 0.9933
vn -0.0051 -0.0393 0.9992
vn -0.1300 -0.0601 0.9897
vn -0.0720 -0.0725 0.9948
vn -0.0796 -0.0496 0.9956
vn -0.0122 -0.1273 0.9918
vn -0.1363 -0.0565 0.9891
vn -0.1551 -0.0745 0.9851
vn -0.1146 -0.0607 0.9916
vn -0.0165 -0.1700 0.9853
vn -0.1205 -0.0412 0.9919
vn -0.1249 0.0205 0.9920
vn -0.0445 -0.0953 0.9945
vn -0.1048 0.1867 0.9768
vn -0.0390 -0.0325 0.9987
vn -0.0292 -0.1425 0.9894
vn -0.0029 -0.0863 0.9963
vn 0.0582 -0.0320 0.9978
vn 0.0829 -0.0293 0.9961
vn 0.0037 -0.0300 0.9995
vn 0.0242 -0.0068 0.9997
vn 0.0508 -0.0022 0.9987
vn 0.0929 -0.0097 0.9956
vn -0.0054 -1.0000 -0.0000
vn -0.0054 -1.0000 -0.0073
vn -0.7441 0.1137 -0.6584
vn -0.9047 0.1638 -0.3934
vn -0.9038 0.1630 -0.3958
vn -0.7468 0.1130 -0.6554
vn -0.6720 0.2346 -0.7024
vn -0.8856 0.3228 -0.3340
vn -0.7656 0.5385 -0.3519
vn -0.6289 0.4061 -0.6631
vn -0.4535 0.8838 -0.1151
vn -0.5031 0.6975 -0.5103
vn -0.2483 0.9687 -0.0084
vn -0.2708 0.9114 -0.3100
vn -0.1400 0.9896 0.0346
vn -0.1378 0.9619 -0.2363
vn -0.5866 0.8094 0.0289
vn -0.5883 0.7040 -0.3978
vn -0.3760 0.8222 -0.4273
vn -0.7228 0.6895 0.0459
vn -0.8623 0.5064 0.0036
vn -0.9355 0.3118 -0.1664
vn -0.9299 0.3293 -0.1639
vn -0.9109 0.4015 -0.0953
vn -0.9118 0.4003 -0.0919
vn -0.1771 0.9837 0.0295
vn -0.3275 0.9448 0.0112
vn -0.1610 0.9855 -0.0532
vn -0.2728 0.9599 -0.0646
vn -0.2405 0.8518 -0.4654
vn -0.2037 0.7951 -0.5712
vn -0.4274 0.4999 -0.7533
vn -0.4817 0.5675 -0.6678
vn -0.5680 0.3040 -0.7648
vn -0.5140 0.2523 -0.8198
vn -0.5602 0.1585 -0.8131
vn -0.6113 0.1703 -0.7728
vn -0.5914 0.1005 -0.8001
vn -0.6242 0.1240 -0.7714
vn -0.1941 0.6759 -0.7110
vn -0.0872 0.9213 -0.3789
vn -0.0616 0.8476 -0.5270
vn -0.5187 0.1456 -0.8425
vn -0.5610 0.0651 -0.8253
vn -0.1165 0.6800 -0.7239
vn -0.2756 0.5414 -0.7944
vn -0.4135 0.3431 -0.8434
vn -0.4916 0.2572 -0.8320
vn 0.1977 0.8698 -0.4520
vn 0.1474 0.7408 -0.6554
vn -0.3096 0.1307 -0.9418
vn -0.3305 0.1330 -0.9344
vn 0.0248 0.2531 -0.9671
vn -0.1481 0.2133 -0.9657
vn -0.2425 0.1537 -0.9579
vn -0.3192 0.1096 -0.9413
vn -0.3123 0.0498 -0.9487
vn 0.4344 0.6367 -0.6371
vn 0.2573 0.2475 -0.9341
vn 0.5067 0.7181 -0.4770
vn 0.5910 0.5394 -0.5998
vn 0.5758 0.4373 -0.6908
vn 0.3439 0.1320 -0.9297
vn 0.2549 0.0696 -0.9645
vn 0.4947 0.3040 -0.8142
vn 0.0980 0.0917 -0.9910
vn 0.1155 0.4148 -0.9026
vn -0.2198 0.2987 -0.9287
vn -0.0429 0.2811 -0.9587
vn -0.1161 -0.0139 -0.9931
vn -0.1259 -0.0296 -0.9916
vn -0.4564 0.2189 -0.8624
vn -0.0644 0.0514 -0.9966
vn -0.3045 0.4484 -0.8404
vn 0.0639 0.1907 -0.9796
vn 0.0687 0.6559 -0.7517
vn 0.1869 0.2925 -0.9378
vn 0.3388 0.6877 -0.6421
vn 0.3538 0.2274 -0.9073
vn 0.6001 0.5486 -0.5822
vn 0.4405 0.0699 -0.8950
vn 0.8115 0.2107 -0.5450
vn 0.4337 0.0062 -0.9010
vn 0.8162 0.0169 -0.5775
vn 0.2827 0.5782 -0.7653
vn -0.4107 0.5096 -0.7561
vn -0.6377 0.4163 -0.6481
vn -0.3810 0.6950 -0.6098
vn 0.0941 0.8487 -0.5204
vn 0.3836 0.8073 -0.4484
vn 0.5861 0.6918 -0.4219
vn 0.8182 0.4226 -0.3898
vn 0.9167 0.1062 -0.3851
vn 0.9175 0.0132 -0.3974
vn 0.9275 0.0616 -0.3687
vn 0.7289 0.2752 -0.6268
vn 0.7147 0.3822 -0.5858
vn 0.4585 0.4971 -0.7366
vn 0.5456 0.5184 -0.6585
vn -0.1851 -0.0041 -0.9827
vn -0.1554 -0.0008 -0.9879
vn -0.1121 0.1435 -0.9833
vn -0.0273 0.1344 -0.9906
vn -0.1087 -0.0149 -0.9940
vn 0.0269 0.2871 -0.9575
vn 0.1229 0.2183 -0.9681
vn -0.0510 0.3428 -0.9380
vn -0.0564 0.0582 -0.9967
vn -0.0686 0.2258 -0.9718
vn -0.0839 0.1457 -0.9858
vn -0.0964 0.0168 -0.9952
vn -0.2043 0.3381 -0.9187
vn -0.8084 0.5591 -0.1842
vn -0.7916 0.5396 -0.2866
vn -0.8662 0.4815 -0.1339
vn -0.9020 0.4237 0.0833
vn -0.6666 0.5304 -0.5238
vn -0.5443 0.5368 -0.6447
vn -0.3509 0.4997 -0.7919
vn -0.2495 0.4210 -0.8721
vn -0.0334 0.4242 -0.9049
vn -0.1116 0.4000 -0.9097
vn -0.4248 0.5687 -0.7044
vn -0.6038 0.6907 -0.3979
vn -0.1773 0.6474 -0.7412
vn 0.0206 0.7169 -0.6969
vn 0.1248 0.7274 -0.6747
vn 0.0699 0.4600 -0.8852
vn 0.2457 0.4390 -0.8643
vn 0.1484 0.3491 -0.9252
vn 0.3450 0.6559 -0.6713
vn 0.3811 0.5530 -0.7409
vn 0.1668 0.4675 -0.8681
vn 0.2681 0.4523 -0.8506
vn 0.3760 0.5092 -0.7742
vn 0.3412 0.4384 -0.8315
vn 0.4849 0.5466 -0.6827
vn -0.2542 0.8370 -0.4846
vn -0.0956 0.9092 -0.4053
vn -0.5108 0.8566 -0.0724
vn -0.6998 0.7110 -0.0684
vn -0.1655 0.9805 -0.1062
vn -0.4875 0.8571 -0.1668
vn -0.6861 0.7138 -0.1408
vn -0.1336 0.9646 -0.2273
vn -0.5048 0.8289 -0.2408
vn -0.7176 0.6585 -0.2266
vn 0.1396 0.9791 -0.1478
vn 0.1569 0.9466 -0.2815
vn 0.1549 0.8805 -0.4479
vn 0.4125 0.7992 -0.4371
vn 0.4468 0.8515 -0.2744
vn 0.4539 0.8796 -0.1425
vn 0.6093 0.6537 -0.4487
vn 0.6719 0.6981 -0.2474
vn 0.6949 0.7097 -0.1157
vn 0.7230 0.5345 -0.4377
vn 0.8256 0.5164 -0.2274
vn 0.8475 0.5170 -0.1202
vn 0.9468 0.2582 -0.1922
vn 0.8699 0.3205 -0.3748
vn 0.9655 0.2264 -0.1287
vn 0.9849 -0.1475 -0.0910
vn 0.9882 -0.0704 -0.1357
vn 0.9663 -0.0038 -0.2574
vn 0.9597 -0.0499 -0.2767
vn 0.9733 -0.1147 -0.1988
vn 0.9526 -0.2975 -0.0638
vn 0.9724 -0.2062 -0.1094
vn -0.3471 0.9039 0.2500
vn -0.8387 0.4645 0.2844
vn -0.4841 0.7886 0.3791
vn -0.0865 0.9158 0.3921
vn -0.0964 0.9433 0.3177
vn -0.1349 0.9223 0.3623
vn -0.0733 0.8470 0.5266
vn -0.1355 0.8895 0.4363
vn -0.2255 0.9169 0.3292
vn -0.5155 0.8375 0.1813
vn -0.3286 0.9133 0.2406
vn -0.7326 0.6799 0.0327
vn -0.5736 0.8167 0.0630
vn -0.1501 0.9826 -0.1090
vn -0.2017 0.9728 -0.1139
vn -0.3252 0.9374 -0.1244
vn -0.4072 0.9122 -0.0462
vn -0.4649 0.8854 -0.0075
vn -0.8233 0.5619 -0.0801
vn 0.0248 -0.1310 -0.9911
vn 0.0054 -0.1072 -0.9942
vn -0.0944 0.0250 -0.9952
vn -0.0801 0.1162 -0.9900
vn 0.0053 -0.0829 -0.9965
vn -0.1580 -0.0641 -0.9854
vn -0.1341 -0.0465 -0.9899
vn -0.1025 -0.0540 -0.9933
vn -0.0051 -0.0393 -0.9992
vn -0.1300 -0.0601 -0.9897
vn -0.0720 -0.0725 -0.9948
vn -0.0122 -0.1273 -0.9918
vn -0.0796 -0.0496 -0.9956
vn -0.1551 -0.0745 -0.9851
vn -0.1363 -0.0565 -0.9891
vn -0.1146 -0.0607 -0.9916
vn -0.0165 -0.1700 -0.9853
vn -0.1205 -0.0412 -0.9919
vn -0.1249 0.0205 -0.9920
vn -0.0445 -0.0953 -0.9945
vn -0.1048 0.1867 -0.9768
vn -0.0390 -0.0325 -0.9987
vn -0.0029 -0.0863 -0.9963
vn -0.0292 -0.1425 -0.9894
vn 0.0829 -0.0293 -0.9961
vn 0.0582 -0.0320 -0.9978
vn 0.0242 -0.0068 -0.9997
vn 0.0037 -0.0300 -0.9995
vn 0.0508 -0.0022 -0.9987
vn 0.0929 -0.0097 -0.9956
vn -0.0054 -1.0000 0.0073
vt 0.390410 0.027684
vt 0.383477 0.048098
vt 0.359127 0.043581
vt 0.366024 0.019048
vt 0.376510 0.077104
vt 0.354871 0.073243
vt 0.375223 0.107222
vt 0.351525 0.099650
vt 0.376572 0.136699
vt 0.357303 0.132581
vt 0.358897 0.162061
vt 0.377137 0.165660
vt 0.379040 0.194281
vt 0.369495 0.198864
vt 0.355098 0.190603
vt 0.336845 0.075285
vt 0.325623 0.031073
vt 0.332602 0.013013
vt 0.295627 0.007395
vt 0.292612 0.025203
vt 0.254673 0.022739
vt 0.254577 0.003975
vt 0.277932 0.176234
vt 0.255322 0.176676
vt 0.255144 0.126266
vt 0.281136 0.132676
vt 0.301731 0.178680
vt 0.308046 0.144285
vt 0.384808 0.141232
vt 0.385134 0.112852
vt 0.390539 0.116632
vt 0.390122 0.146003
vt 0.389716 0.079610
vt 0.396073 0.051021
vt 0.407505 0.053435
vt 0.401036 0.080078
vt 0.403755 0.033743
vt 0.413794 0.038081
vt 0.385960 0.193753
vt 0.384477 0.167750
vt 0.389970 0.169081
vt 0.435744 0.061159
vt 0.449128 0.050783
vt 0.453924 0.058672
vt 0.444030 0.070139
vt 0.409713 0.147194
vt 0.411768 0.165197
vt 0.394064 0.115239
vt 0.417332 0.082358
vt 0.429348 0.093194
vt 0.413287 0.121811
vt 0.390247 0.194415
vt 0.416123 0.184403
vt 0.435778 0.099205
vt 0.426034 0.121044
vt 0.424576 0.162236
vt 0.431696 0.180331
vt 0.421989 0.144682
vt 0.448922 0.079600
vt 0.459479 0.070476
vt 0.442435 0.200963
vt 0.431403 0.205251
vt 0.417163 0.222235
vt 0.438166 0.243398
vt 0.452879 0.228339
vt 0.461203 0.220451
vt 0.482633 0.234549
vt 0.476149 0.246305
vt 0.502191 0.238189
vt 0.490562 0.268575
vt 0.503006 0.246473
vt 0.501867 0.288282
vt 0.490573 0.294073
vt 0.503853 0.308344
vt 0.474464 0.325214
vt 0.464522 0.317570
vt 0.451690 0.347387
vt 0.439064 0.344022
vt 0.429648 0.379615
vt 0.418705 0.374758
vt 0.448763 0.352382
vt 0.422994 0.413566
vt 0.411422 0.411644
vt 0.421510 0.446837
vt 0.408433 0.446376
vt 0.422666 0.415056
vt 0.424758 0.477661
vt 0.409246 0.480380
vt 0.421179 0.449610
vt 0.431453 0.501217
vt 0.421167 0.504509
vt 0.425385 0.480172
vt 0.469831 0.263253
vt 0.469841 0.287127
vt 0.444709 0.309691
vt 0.417071 0.332663
vt 0.399841 0.371240
vt 0.387458 0.406899
vt 0.380655 0.435135
vt 0.384778 0.471179
vt 0.385231 0.490428
vt 0.393644 0.517673
vt 0.376489 0.466715
vt 0.364929 0.432809
vt 0.416662 0.309503
vt 0.407387 0.284162
vt 0.395502 0.314239
vt 0.395933 0.254587
vt 0.383184 0.234729
vt 0.382873 0.221158
vt 0.322584 0.238061
vt 0.332340 0.213761
vt 0.346384 0.214537
vt 0.336094 0.235886
vt 0.359822 0.221415
vt 0.349184 0.240287
vt 0.372441 0.225692
vt 0.360499 0.244742
vt 0.363092 0.280391
vt 0.360865 0.261803
vt 0.340989 0.253728
vt 0.325816 0.252476
vt 0.337165 0.265435
vt 0.334976 0.280954
vt 0.336716 0.314382
vt 0.363089 0.314051
vt 0.390979 0.344725
vt 0.364272 0.346982
vt 0.340588 0.349266
vt 0.379046 0.400223
vt 0.384749 0.374920
vt 0.369922 0.379856
vt 0.351885 0.390190
vt 0.324917 0.265559
vt 0.316077 0.277493
vt 0.255455 0.245804
vt 0.273609 0.245964
vt 0.272319 0.257176
vt 0.255493 0.257371
vt 0.255554 0.281111
vt 0.272313 0.280393
vt 0.292200 0.245535
vt 0.290852 0.258000
vt 0.292956 0.280150
vt 0.309386 0.245824
vt 0.310712 0.257930
vt 0.274129 0.314145
vt 0.255621 0.314879
vt 0.296289 0.314518
vt 0.318057 0.314269
vt 0.321818 0.349671
vt 0.299541 0.348917
vt 0.274862 0.346341
vt 0.255672 0.349447
vt 0.331611 0.394592
vt 0.306975 0.397947
vt 0.279652 0.398749
vt 0.255726 0.399691
vt 0.344770 0.436689
vt 0.316806 0.441122
vt 0.284854 0.443615
vt 0.255756 0.443206
vt 0.359023 0.469817
vt 0.327205 0.475353
vt 0.289603 0.479810
vt 0.255771 0.479747
vt 0.336764 0.505693
vt 0.296898 0.511470
vt 0.369209 0.499312
vt 0.255778 0.513603
vt 0.374621 0.528916
vt 0.316485 0.538112
vt 0.349418 0.534352
vt 0.255780 0.537717
vt 0.335715 0.184647
vt 0.342888 0.186069
vt 0.337849 0.191917
vt 0.333713 0.160897
vt 0.332068 0.138206
vt 0.339196 0.137287
vt 0.342683 0.164024
vt 0.324947 0.114871
vt 0.313248 0.100775
vt 0.318435 0.088474
vt 0.332486 0.113075
vt 0.285883 0.078805
vt 0.294123 0.057695
vt 0.254938 0.077849
vt 0.254804 0.048958
vt 0.321397 0.181040
vt 0.468689 0.185928
vt 0.479812 0.197486
vt 0.471826 0.095262
vt 0.465408 0.100674
vt 0.481812 0.198907
vt 0.494567 0.207009
vt 0.451165 0.126610
vt 0.448685 0.140693
vt 0.456868 0.113654
vt 0.506104 0.209313
vt 0.449035 0.142466
vt 0.450333 0.152897
vt 0.458106 0.168550
vt 0.464372 0.180858
vt 0.465337 0.100697
vt 0.457505 0.112504
vt 0.454985 0.163689
vt 0.475920 0.160343
vt 0.479147 0.166573
vt 0.468168 0.131051
vt 0.466899 0.138203
vt 0.471057 0.124471
vt 0.486554 0.175090
vt 0.492468 0.181006
vt 0.467521 0.141212
vt 0.468171 0.146626
vt 0.476159 0.116569
vt 0.472179 0.122567
vt 0.495707 0.183213
vt 0.502202 0.187304
vt 0.470548 0.152100
vt 0.479908 0.113526
vt 0.476646 0.116275
vt 0.508041 0.188515
vt 0.508912 0.342140
vt 0.492526 0.351378
vt 0.450139 0.453083
vt 0.452073 0.468244
vt 0.467277 0.378787
vt 0.456872 0.393583
vt 0.450192 0.422232
vt 0.449567 0.439408
vt 0.480269 0.363475
vt 0.455009 0.395989
vt 0.451379 0.414419
vt 0.454928 0.478136
vt 0.458341 0.489476
vt 0.757236 0.518897
vt 0.751146 0.905197
vt 0.700516 0.901461
vt 0.673456 0.899696
vt 0.652118 0.897919
vt 0.634020 0.894487
vt 0.610927 0.883170
vt 0.605136 0.876135
vt 0.602887 0.851487
vt 0.605654 0.788738
vt 0.606625 0.759825
vt 0.607097 0.742688
vt 0.608501 0.698625
vt 0.608819 0.674134
vt 0.609036 0.656515
vt 0.611126 0.620251
vt 0.612784 0.602661
vt 0.615263 0.578290
vt 0.621369 0.568519
vt 0.626067 0.561823
vt 0.631993 0.553904
vt 0.641243 0.544483
vt 0.660862 0.532440
vt 0.689368 0.524660
vt 0.721414 0.519710
vt 0.119171 0.029056
vt 0.143414 0.020193
vt 0.150543 0.044607
vt 0.126291 0.049353
vt 0.155072 0.074169
vt 0.133521 0.078222
vt 0.158651 0.100490
vt 0.135081 0.108250
vt 0.153159 0.133391
vt 0.133984 0.137647
vt 0.151785 0.162802
vt 0.133628 0.166506
vt 0.155749 0.191238
vt 0.141442 0.199549
vt 0.131907 0.195032
vt 0.173083 0.076039
vt 0.183863 0.031787
vt 0.176710 0.013825
vt 0.213580 0.007826
vt 0.216776 0.025589
vt 0.232721 0.176284
vt 0.229212 0.132876
vt 0.208962 0.179088
vt 0.202403 0.144705
vt 0.125813 0.142228
vt 0.120557 0.147020
vt 0.119897 0.117765
vt 0.125250 0.113951
vt 0.120373 0.080846
vt 0.109090 0.081420
vt 0.102376 0.054913
vt 0.113755 0.052392
vt 0.095949 0.039661
vt 0.105919 0.035234
vt 0.125009 0.194545
vt 0.126331 0.168635
vt 0.120869 0.169995
vt 0.074625 0.062928
vt 0.066442 0.071914
vt 0.056527 0.060572
vt 0.061246 0.052694
vt 0.099144 0.166260
vt 0.101077 0.148334
vt 0.116435 0.116446
vt 0.097358 0.123108
vt 0.081195 0.094749
vt 0.093077 0.083893
vt 0.120742 0.195227
vt 0.094923 0.185397
vt 0.084673 0.122428
vt 0.074839 0.100770
vt 0.079408 0.181429
vt 0.086384 0.163390
vt 0.088850 0.145914
vt 0.061638 0.081356
vt 0.051078 0.072350
vt 0.079819 0.206214
vt 0.068826 0.201997
vt 0.094072 0.223056
vt 0.073242 0.244208
vt 0.058544 0.229272
vt 0.050233 0.221455
vt 0.028956 0.235550
vt 0.035445 0.247228
vt 0.009508 0.239234
vt 0.019258 0.268606
vt 0.021223 0.294806
vt 0.009968 0.289070
vt 0.006817 0.246643
vt 0.008040 0.309042
vt 0.037331 0.325765
vt 0.047212 0.318132
vt 0.060048 0.347791
vt 0.072611 0.344416
vt 0.082028 0.379883
vt 0.062952 0.352757
vt 0.092936 0.375030
vt 0.088686 0.413741
vt 0.100226 0.411817
vt 0.090164 0.446948
vt 0.089003 0.415226
vt 0.103217 0.446486
vt 0.086918 0.477731
vt 0.090488 0.449717
vt 0.102410 0.480444
vt 0.080229 0.501260
vt 0.086288 0.480238
vt 0.090504 0.504547
vt 0.041785 0.264075
vt 0.041841 0.287839
vt 0.066922 0.310239
vt 0.094507 0.333062
vt 0.111745 0.371500
vt 0.124136 0.407068
vt 0.130948 0.435251
vt 0.126845 0.471250
vt 0.126398 0.490477
vt 0.117997 0.517694
vt 0.135122 0.466789
vt 0.146650 0.432919
vt 0.104035 0.284704
vt 0.094861 0.309982
vt 0.115964 0.314649
vt 0.127975 0.235351
vt 0.115350 0.255193
vt 0.128223 0.221829
vt 0.188419 0.238378
vt 0.174930 0.236281
vt 0.164564 0.215051
vt 0.178565 0.214207
vt 0.151199 0.221973
vt 0.161894 0.240735
vt 0.138642 0.226297
vt 0.150631 0.245230
vt 0.148185 0.280792
vt 0.150337 0.262244
vt 0.170129 0.254104
vt 0.185265 0.252783
vt 0.173994 0.265768
vt 0.176239 0.281249
vt 0.174608 0.314629
vt 0.148290 0.314375
vt 0.147187 0.347237
vt 0.120542 0.345039
vt 0.170832 0.349467
vt 0.126805 0.375151
vt 0.132525 0.400397
vt 0.141608 0.380056
vt 0.159628 0.390348
vt 0.186219 0.265840
vt 0.195092 0.277721
vt 0.238678 0.257278
vt 0.237322 0.246131
vt 0.238799 0.280461
vt 0.220207 0.258141
vt 0.218836 0.245665
vt 0.218186 0.280288
vt 0.200370 0.258154
vt 0.201639 0.246049
vt 0.237116 0.314203
vt 0.214977 0.314644
vt 0.193237 0.314460
vt 0.189575 0.349828
vt 0.211825 0.349023
vt 0.236479 0.346389
vt 0.179881 0.394713
vt 0.204497 0.398029
vt 0.231804 0.398787
vt 0.166787 0.436777
vt 0.194728 0.441182
vt 0.226664 0.443643
vt 0.184362 0.475396
vt 0.152571 0.469880
vt 0.221945 0.479829
vt 0.214666 0.511480
vt 0.174822 0.505717
vt 0.142405 0.499348
vt 0.137001 0.528925
vt 0.195092 0.538112
vt 0.162182 0.534355
vt 0.175047 0.185193
vt 0.172956 0.192456
vt 0.167898 0.186651
vt 0.176898 0.161475
vt 0.167968 0.164654
vt 0.171257 0.137948
vt 0.178378 0.138812
vt 0.185302 0.115461
vt 0.177762 0.113728
vt 0.191584 0.089041
vt 0.196872 0.101284
vt 0.215587 0.058070
vt 0.224016 0.079087
vt 0.189326 0.181522
vt 0.031634 0.198683
vt 0.042653 0.187143
vt 0.045378 0.102424
vt 0.038959 0.097083
vt 0.016994 0.208188
vt 0.029659 0.200085
vt 0.062271 0.142120
vt 0.059713 0.128128
vt 0.053956 0.115278
vt 0.005523 0.210516
vt 0.060710 0.154255
vt 0.061937 0.143872
vt 0.046915 0.182107
vt 0.053089 0.169838
vt 0.053315 0.114139
vt 0.045449 0.102446
vt 0.056147 0.165017
vt 0.032155 0.167971
vt 0.035335 0.161761
vt 0.044139 0.139761
vt 0.042830 0.132655
vt 0.039914 0.126130
vt 0.018981 0.182339
vt 0.024841 0.176433
vt 0.042930 0.148125
vt 0.043544 0.142736
vt 0.038785 0.124244
vt 0.034788 0.118303
vt 0.009336 0.188606
vt 0.015784 0.184515
vt 0.040599 0.153583
vt 0.034301 0.118015
vt 0.031040 0.115301
vt 0.003530 0.189830
vt 0.019409 0.351848
vt 0.003079 0.342690
vt 0.059638 0.468329
vt 0.061568 0.453188
vt 0.054907 0.393829
vt 0.044524 0.379092
vt 0.062156 0.439540
vt 0.061529 0.422394
vt 0.031635 0.363865
vt 0.060375 0.414609
vt 0.056743 0.396229
vt 0.053370 0.489534
vt 0.056778 0.478207
vt 0.793016 0.520838
vt 0.824890 0.526796
vt 0.853136 0.535471
vt 0.872366 0.548127
vt 0.881314 0.557834
vt 0.886987 0.565936
vt 0.891472 0.572777
vt 0.897267 0.582736
vt 0.898977 0.607173
vt 0.900079 0.624807
vt 0.901025 0.661118
vt 0.900686 0.678735
vt 0.900232 0.703224
vt 0.900247 0.747310
vt 0.900179 0.764453
vt 0.900238 0.793382
vt 0.901025 0.856187
vt 0.898000 0.880752
vt 0.891991 0.887601
vt 0.868552 0.898185
vt 0.850355 0.901044
vt 0.828972 0.902147
vt 0.801870 0.903059
s 1
usemtl MAT_car_001_Handpaint
f 1/1/1 4/2/2 28/3/3 19/4/4
f 4/2/5 3/5/6 27/6/7 28/3/8
f 3/5/6 5/7/9 26/8/10 27/6/7
f 5/7/9 6/9/11 25/10/12 26/8/10
f 24/11/13 25/10/12 6/9/11 29/12/14
f 29/12/14 7/13/15 125/14/16 18/15/17 24/11/13
f 27/6/7 26/8/10 30/16/18
f 28/3/8 27/6/7 30/16/18 31/17/19
f 20/18/20 19/4/4 28/3/3 31/17/21
f 21/19/22 20/18/20 31/17/21 32/20/23
f 21/19/22 32/20/23 33/21/24 23/22/24
f 35/23/25 36/24/26 38/25/27 37/26/28
f 34/27/29 35/23/25 37/26/28 39/28/30
f 111/29/31 112/30/32 43/31/33 44/32/34
f 113/33/35 114/34/36 42/35/37 41/36/38
f 114/34/36 115/37/39 40/38/40 42/35/37
f 112/30/32 113/33/35 41/36/38 43/31/33
f 116/39/41 7/13/15 29/12/14 117/40/42
f 117/40/42 111/29/31 44/32/34 46/41/43
f 42/42/37 40/43/40 47/44/44 49/45/45
f 46/41/43 44/32/34 51/46/46 53/47/47
f 43/48/33 41/49/38 48/50/48 50/51/49
f 44/32/34 43/48/33 50/51/49 51/46/46
f 45/52/50 46/41/43 53/47/47 52/53/51
f 41/49/38 42/42/37 49/45/45 48/50/48
f 50/51/49 48/50/48 55/54/52 57/55/53
f 52/53/51 53/47/47 60/56/54 59/57/55
f 51/46/46 50/51/49 57/55/53 58/58/56
f 48/50/48 49/45/45 56/59/57 55/54/52
f 53/47/47 51/46/46 58/58/56 60/56/54
f 49/45/45 47/44/44 54/60/58 56/59/57
f 52/53/51 59/57/55 78/61/59 92/62/60
f 52/53/51 92/62/60 82/63/61 45/52/50
f 83/64/62 82/63/61 92/62/60 93/65/63
f 79/66/64 93/65/63 92/62/60 78/61/59
f 80/67/65 94/68/66 93/65/63 79/66/64
f 81/69/67 95/70/68 94/68/66 80/67/65
f 95/70/68 81/71/67 70/72/69 96/73/70
f 77/74/71 96/73/70 70/72/69
f 76/75/72 97/76/73 96/73/70 77/74/71
f 75/77/74 98/78/75 97/76/73 76/75/72
f 74/79/76 99/80/77 98/78/75 75/81/74
f 73/82/78 100/83/79 99/80/77 74/79/76
f 72/84/80 101/85/81 100/83/79 73/86/78
f 2/87/82 103/88/83 101/85/81 72/89/80
f 71/90/84 102/91/85 103/88/83 2/92/82
f 83/64/62 93/65/63 94/68/66 95/70/68 84/93/86
f 85/94/87 84/93/86 95/70/68 96/73/70
f 86/95/88 85/94/87 96/73/70 97/76/73
f 87/96/89 86/95/88 97/76/73 98/78/75
f 88/97/90 87/96/89 98/78/75 99/80/77
f 89/98/91 88/97/90 99/80/77 100/83/79
f 90/99/92 89/98/91 100/83/79 101/85/81
f 91/100/93 90/99/92 101/85/81 103/88/83
f 16/101/94 91/100/93 103/88/83
f 17/102/95 16/101/94 103/88/83 102/91/85
f 16/101/96 15/103/97 91/100/98
f 15/103/97 14/104/99 90/99/100 91/100/98
f 85/94/101 86/95/102 108/105/103 104/106/104 84/93/105
f 107/107/106 104/106/104 108/105/103
f 86/95/102 87/96/107 108/105/103
f 29/12/14 6/9/11 111/29/31 117/40/42
f 45/52/108 116/39/41 117/40/42 46/41/43
f 5/7/9 3/5/6 113/33/35 112/30/32
f 4/2/2 1/1/1 115/37/39 114/34/36
f 3/5/6 4/2/5 114/34/36 113/33/35
f 6/9/11 5/7/9 112/30/32 111/29/31
f 82/63/109 83/64/110 118/108/111 109/109/112
f 83/64/110 84/93/105 104/106/104 118/108/111
f 109/109/112 128/110/113 116/39/41 45/52/108 82/63/109
f 62/111/114 61/112/115 120/113/116 121/114/117
f 8/115/118 124/116/119 121/114/117 120/113/116
f 18/15/17 125/14/16 8/115/118 120/113/116
f 7/13/15 126/117/120 8/115/118 125/14/16
f 119/118/121 124/116/119 8/115/118 126/117/120
f 105/119/122 127/120/123 118/108/111 104/106/104
f 119/118/121 109/109/112 118/108/111 127/120/123
f 128/110/113 126/117/120 7/13/15 116/39/41
f 128/110/113 109/109/112 126/117/120
f 119/118/121 126/117/120 109/109/112
f 9/121/124 122/122/125 121/114/117 124/116/119
f 124/116/119 119/118/121 9/121/124
f 9/121/124 119/118/121 127/120/123 129/123/126
f 10/124/127 129/123/126 127/120/123 105/119/122
f 11/125/128 10/124/127 105/119/122 106/126/129
f 104/106/104 107/107/106 106/126/129 105/119/122
f 106/126/129 107/107/106 110/127/130 130/128/131
f 107/107/106 108/105/103 87/96/107 110/127/130
f 12/129/132 11/125/128 106/126/129 130/128/131
f 89/98/133 132/130/134 131/131/135 88/97/136
f 132/130/134 133/132/137 131/131/135
f 130/128/131 110/127/130 131/131/135 133/132/137
f 88/97/136 131/131/135 110/127/130 87/96/107
f 13/133/138 12/129/132 130/128/131 133/132/137
f 123/134/139 122/122/125 9/121/124 129/123/126
f 123/134/139 129/123/126 10/124/127 66/135/140
f 65/136/141 64/137/142 136/138/143 137/139/144
f 69/140/145 137/139/144 136/138/143 68/141/146
f 64/137/142 138/142/147 135/143/148 136/138/143
f 68/141/146 136/138/143 135/143/148 67/144/149
f 135/143/148 138/142/147 63/145/150 134/146/151
f 67/144/149 135/143/148 134/146/151 66/135/140
f 121/114/117 122/122/125 62/111/114
f 63/145/150 62/111/114 122/122/125 134/146/151
f 122/122/125 123/134/139 66/135/140 134/146/151
f 90/99/100 132/130/134 89/98/133
f 14/104/99 13/133/138 133/132/137 132/130/134 90/99/100
f 69/140/145 68/141/146 146/147/152 139/148/153
f 68/141/146 67/144/149 145/149/154 146/147/152
f 67/144/149 66/135/140 144/150/155 145/149/154
f 11/125/128 144/150/155 66/135/140 10/124/127
f 12/129/132 147/151/156 144/150/155 11/125/128
f 145/149/154 144/150/155 147/151/156 148/152/157
f 146/147/152 145/149/154 148/152/157 149/153/158
f 140/154/159 139/148/153 146/147/152 149/153/158
f 13/133/138 150/155/160 147/151/156 12/129/132
f 148/152/157 147/151/156 150/155/160 151/156/161
f 149/153/158 148/152/157 151/156/161 152/157/162
f 141/158/163 140/154/159 149/153/158 152/157/162
f 14/104/99 153/159/164 150/155/160 13/133/138
f 151/156/161 150/155/160 153/159/164 154/160/165
f 152/157/162 151/156/161 154/160/165 155/161/166
f 142/162/167 141/158/163 152/157/162 155/161/166
f 154/160/165 153/159/164 156/163/168 157/164/169
f 155/161/166 154/160/165 157/164/169 158/165/170
f 15/103/97 156/163/168 153/159/164 14/104/99
f 142/162/167 155/161/166 158/165/170 159/166/171
f 158/165/170 157/164/169 162/167/172 163/168/173
f 157/164/169 156/163/168 161/169/174 162/167/172
f 16/101/96 161/169/174 156/163/168 15/103/97
f 159/166/171 158/165/170 163/168/173 160/170/175
f 17/102/176 164/171/177 161/169/174 16/101/96
f 165/172/178 163/168/173 162/167/172 166/173/179
f 160/170/175 163/168/173 165/172/178 143/174/180
f 162/167/172 161/169/174 164/171/177 166/173/179
f 167/175/181 168/176/182 169/177/183
f 179/178/184 170/179/185 171/180/186 178/181/187
f 181/182/188 172/183/189 173/184/190 180/185/191
f 172/183/189 174/186/192 175/187/193 173/184/190
f 174/186/192 177/188/194 176/189/195 175/187/193
f 167/175/181 179/178/184 178/181/187 168/176/182
f 170/179/185 181/182/188 180/185/191 171/180/186
f 169/177/183 168/176/182 18/15/17
f 22/190/196 34/27/29 39/28/30 179/178/197 167/175/196
f 168/176/182 178/181/187 24/11/13 18/15/17
f 179/178/197 39/28/30 172/183/198 181/182/199 170/179/199
f 171/180/186 25/10/12 24/11/13 178/181/187
f 26/8/10 25/10/12 171/180/186 180/185/191
f 175/187/193 31/17/19 30/16/18 173/184/190
f 173/184/190 30/16/18 26/8/10 180/185/191
f 172/183/198 39/28/30 37/26/28 174/186/200
f 176/189/195 33/21/201 32/20/202 175/187/193
f 31/17/19 175/187/193 32/20/202
f 177/188/203 174/186/200 37/26/28 38/25/27
f 79/66/64 78/61/59 189/191/204 190/192/205
f 56/59/57 54/60/58 182/193/206 184/194/207
f 80/67/65 79/66/64 190/195/205 191/196/208
f 58/58/56 57/55/53 185/197/209 186/198/210
f 57/55/53 55/54/52 183/199/211 185/197/209
f 81/69/67 80/67/65 191/196/208 192/200/212
f 60/56/54 58/58/56 186/201/210 188/202/213
f 78/61/59 59/57/55 187/203/214 189/204/204
f 55/54/52 56/59/57 184/205/207 183/206/211
f 59/57/55 60/56/54 188/202/213 187/207/214
f 189/204/204 187/203/214 198/208/215 200/209/216
f 186/198/210 185/197/209 196/210/217 197/211/218
f 185/197/209 183/199/211 194/212/219 196/210/217
f 190/192/205 189/191/204 200/213/216 201/214/220
f 188/202/213 186/201/210 197/215/218 199/216/221
f 183/206/211 184/205/207 195/217/222 194/218/219
f 191/196/208 190/195/205 201/219/220 202/220/223
f 187/207/214 188/202/213 199/216/221 198/221/215
f 184/194/207 182/193/206 193/222/224 195/223/222
f 192/200/212 191/196/208 202/220/223 203/224/225
f 76/75/72 77/74/71 211/225/226 210/226/227
f 2/87/82 72/89/80 206/227/228 204/228/229
f 74/79/76 75/81/74 209/229/230 208/230/231
f 72/84/80 73/86/78 207/231/232 206/232/228
f 75/77/74 76/75/72 210/226/227 209/233/230
f 73/82/78 74/79/76 208/234/231 207/235/232
f 71/90/84 2/92/82 204/236/229 205/237/233
f 23/238/234 143/239/234 165/240/235 166/241/235 164/242/235 17/243/235 102/244/235 71/245/235 205/246/235 211/247/235 77/248/235 70/249/235 81/250/235 192/251/235 203/252/235 193/253/235 182/254/235 54/255/235 47/256/235 40/257/235 115/258/235 1/259/235 19/260/235 20/261/235 21/262/235
f 18/15/17 120/113/116 61/112/115 169/177/183
f 212/263/236 230/264/237 238/265/238 215/266/239
f 215/266/240 238/265/241 237/267/242 214/268/243
f 214/268/243 237/267/242 236/269/244 216/270/245
f 216/270/245 236/269/244 235/271/246 217/272/247
f 234/273/248 239/274/249 217/272/247 235/271/246
f 239/274/249 234/273/248 229/275/250 330/276/251 218/277/252
f 237/267/242 240/278/253 236/269/244
f 238/265/241 241/279/254 240/278/253 237/267/242
f 231/280/255 241/279/256 238/265/238 230/264/237
f 232/281/257 242/282/258 241/279/256 231/280/255
f 232/281/257 23/22/24 33/21/24 242/282/258
f 244/283/259 245/284/260 38/25/27 36/24/26
f 243/285/261 246/286/262 245/284/260 244/283/259
f 316/287/263 251/288/264 250/289/265 317/290/266
f 318/291/267 248/292/268 249/293/269 319/294/270
f 319/294/270 249/293/269 247/295/271 320/296/272
f 317/290/266 250/289/265 248/292/268 318/291/267
f 321/297/273 322/298/274 239/274/249 218/277/252
f 322/298/274 253/299/275 251/288/264 316/287/263
f 249/300/269 256/301/276 254/302/277 247/303/271
f 253/299/275 260/304/278 258/305/279 251/288/264
f 250/306/265 257/307/280 255/308/281 248/309/268
f 251/288/264 258/305/279 257/307/280 250/306/265
f 252/310/282 259/311/283 260/304/278 253/299/275
f 248/309/268 255/308/281 256/301/276 249/300/269
f 257/307/280 264/312/284 262/313/285 255/308/281
f 259/311/283 266/314/286 267/315/287 260/304/278
f 258/305/279 265/316/288 264/312/284 257/307/280
f 255/308/281 262/313/285 263/317/289 256/301/276
f 260/304/278 267/315/287 265/316/288 258/305/279
f 256/301/276 263/317/289 261/318/290 254/302/277
f 259/311/283 297/319/291 283/320/292 266/314/286
f 259/311/283 252/310/282 287/321/293 297/319/291
f 288/322/294 298/323/295 297/319/291 287/321/293
f 284/324/296 283/320/292 297/319/291 298/323/295
f 285/325/297 284/324/296 298/323/295 299/326/298
f 286/327/299 285/325/297 299/326/298 300/328/300
f 300/328/300 301/329/301 275/330/302 286/331/299
f 282/332/303 275/330/302 301/329/301
f 281/333/304 282/332/303 301/329/301 302/334/305
f 280/335/306 281/333/304 302/334/305 303/336/307
f 279/337/308 280/338/306 303/336/307 304/339/309
f 278/340/310 279/337/308 304/339/309 305/341/311
f 277/342/312 278/343/310 305/341/311 306/344/313
f 213/345/314 277/346/312 306/344/313 308/347/315
f 276/348/316 213/349/314 308/347/315 307/350/317
f 288/322/294 289/351/318 300/328/300 299/326/298 298/323/295
f 290/352/319 301/329/301 300/328/300 289/351/318
f 291/353/320 302/334/305 301/329/301 290/352/319
f 292/354/321 303/336/307 302/334/305 291/353/320
f 293/355/322 304/339/309 303/336/307 292/354/321
f 294/356/323 305/341/311 304/339/309 293/355/322
f 295/357/324 306/344/313 305/341/311 294/356/323
f 296/358/325 308/347/315 306/344/313 295/357/324
f 227/359/326 308/347/315 296/358/325
f 228/360/327 307/350/317 308/347/315 227/359/326
f 227/359/328 296/358/329 226/361/330
f 226/361/330 296/358/329 295/357/331 225/362/332
f 290/352/333 289/351/334 309/363/335 313/364/336 291/353/337
f 312/365/338 313/364/336 309/363/335
f 291/353/337 313/364/336 292/354/339
f 239/274/249 322/298/274 316/287/263 217/272/247
f 252/310/340 253/299/275 322/298/274 321/297/273
f 216/270/245 317/290/266 318/291/267 214/268/243
f 215/266/239 319/294/270 320/296/272 212/263/236
f 214/268/243 318/291/267 319/294/270 215/266/240
f 217/272/247 316/287/263 317/290/266 216/270/245
f 287/321/341 314/366/342 323/367/343 288/322/344
f 288/322/344 323/367/343 309/363/335 289/351/334
f 314/366/342 287/321/341 252/310/340 321/297/273 333/368/345
f 269/369/346 326/370/347 325/371/348 268/372/349
f 219/373/350 325/371/348 326/370/347 329/374/351
f 229/275/250 325/371/348 219/373/350 330/276/251
f 218/277/252 330/276/251 219/373/350 331/375/352
f 324/376/353 331/375/352 219/373/350 329/374/351
f 310/377/354 309/363/335 323/367/343 332/378/355
f 324/376/353 332/378/355 323/367/343 314/366/342
f 333/368/345 321/297/273 218/277/252 331/375/352
f 333/368/345 331/375/352 314/366/342
f 324/376/353 314/366/342 331/375/352
f 220/379/356 329/374/351 326/370/347 327/380/357
f 329/374/351 220/379/356 324/376/353
f 220/379/356 334/381/358 332/378/355 324/376/353
f 221/382/359 310/377/354 332/378/355 334/381/358
f 222/383/360 311/384/361 310/377/354 221/382/359
f 309/363/335 310/377/354 311/384/361 312/365/338
f 311/384/361 335/385/362 315/386/363 312/365/338
f 312/365/338 315/386/363 292/354/339 313/364/336
f 223/387/364 335/385/362 311/384/361 222/383/360
f 294/356/365 293/355/366 336/388/367 337/389/368
f 337/389/368 336/388/367 338/390/369
f 335/385/362 338/390/369 336/388/367 315/386/363
f 293/355/366 292/354/339 315/386/363 336/388/367
f 224/391/370 338/390/369 335/385/362 223/387/364
f 328/392/371 334/381/358 220/379/356 327/380/357
f 328/392/371 272/393/372 221/382/359 334/381/358
f 65/136/141 137/139/144 341/394/373 271/395/374
f 69/140/145 274/396/375 341/394/373 137/139/144
f 271/395/374 341/394/373 340/397/376 342/398/377
f 274/396/375 273/399/378 340/397/376 341/394/373
f 340/397/376 339/400/379 270/401/380 342/398/377
f 273/399/378 272/393/372 339/400/379 340/397/376
f 326/370/347 269/369/346 327/380/357
f 270/401/380 339/400/379 327/380/357 269/369/346
f 327/380/357 339/400/379 272/393/372 328/392/371
f 295/357/331 294/356/365 337/389/368
f 225/362/332 295/357/331 337/389/368 338/390/369 224/391/370
f 69/140/145 139/148/153 345/402/381 274/396/375
f 274/396/375 345/402/381 344/403/382 273/399/378
f 273/399/378 344/403/382 343/404/383 272/393/372
f 222/383/360 221/382/359 272/393/372 343/404/383
f 223/387/364 222/383/360 343/404/383 346/405/384
f 344/403/382 347/406/385 346/405/384 343/404/383
f 345/402/381 348/407/386 347/406/385 344/403/382
f 140/154/159 348/407/386 345/402/381 139/148/153
f 224/391/370 223/387/364 346/405/384 349/408/387
f 347/406/385 350/409/388 349/408/387 346/405/384
f 348/407/386 351/410/389 350/409/388 347/406/385
f 141/158/163 351/410/389 348/407/386 140/154/159
f 225/362/332 224/391/370 349/408/387 352/411/390
f 350/409/388 353/412/391 352/411/390 349/408/387
f 351/410/389 354/413/392 353/412/391 350/409/388
f 142/162/167 354/413/392 351/410/389 141/158/163
f 353/412/391 356/414/393 355/415/394 352/411/390
f 354/413/392 357/416/395 356/414/393 353/412/391
f 226/361/330 225/362/332 352/411/390 355/415/394
f 142/162/167 159/166/171 357/416/395 354/413/392
f 357/416/395 360/417/396 359/418/397 356/414/393
f 356/414/393 359/418/397 358/419/398 355/415/394
f 227/359/328 226/361/330 355/415/394 358/419/398
f 159/166/171 160/170/175 360/417/396 357/416/395
f 228/360/399 227/359/328 358/419/398 361/420/400
f 362/421/401 363/422/402 359/418/397 360/417/396
f 160/170/175 143/174/180 362/421/401 360/417/396
f 359/418/397 363/422/402 361/420/400 358/419/398
f 364/423/403 366/424/404 365/425/405
f 374/426/406 373/427/407 368/428/408 367/429/409
f 376/430/410 375/431/411 370/432/412 369/433/413
f 369/433/413 370/432/412 372/434/414 371/435/415
f 371/435/415 372/434/414 176/189/195 177/188/194
f 364/423/403 365/425/405 373/427/407 374/426/406
f 367/429/409 368/428/408 375/431/411 376/430/410
f 366/424/404 229/275/250 365/425/405
f 233/436/416 364/423/416 374/426/417 246/286/262 243/285/261
f 365/425/405 229/275/250 234/273/248 373/427/407
f 374/426/417 367/429/418 376/430/418 369/433/419 246/286/262
f 368/428/408 373/427/407 234/273/248 235/271/246
f 236/269/244 375/431/411 368/428/408 235/271/246
f 372/434/414 370/432/412 240/278/253 241/279/254
f 370/432/412 375/431/411 236/269/244 240/278/253
f 369/433/419 371/435/420 245/284/260 246/286/262
f 176/189/195 372/434/414 242/282/421 33/21/201
f 241/279/254 242/282/421 372/434/414
f 177/188/203 38/25/27 245/284/260 371/435/420
f 284/324/296 385/437/422 384/438/423 283/320/292
f 263/317/289 379/439/424 377/440/425 261/318/290
f 285/325/297 386/441/426 385/442/422 284/324/296
f 265/316/288 381/443/427 380/444/428 264/312/284
f 264/312/284 380/444/428 378/445/429 262/313/285
f 286/327/299 387/446/430 386/441/426 285/325/297
f 267/315/287 383/447/431 381/448/427 265/316/288
f 283/320/292 384/449/423 382/450/432 266/314/286
f 262/313/285 378/451/429 379/452/424 263/317/289
f 266/314/286 382/453/432 383/447/431 267/315/287
f 384/449/423 395/454/433 393/455/434 382/450/432
f 381/443/427 392/456/435 391/457/436 380/444/428
f 380/444/428 391/457/436 389/458/437 378/445/429
f 385/437/422 396/459/438 395/460/433 384/438/423
f 383/447/431 394/461/439 392/462/435 381/448/427
f 378/451/429 389/463/437 390/464/440 379/452/424
f 386/441/426 397/465/441 396/466/438 385/442/422
f 382/453/432 393/467/434 394/461/439 383/447/431
f 379/439/424 390/468/440 388/469/442 377/440/425
f 387/446/430 398/470/443 397/465/441 386/441/426
f 281/333/304 405/471/444 406/472/445 282/332/303
f 213/345/314 399/473/446 401/474/447 277/346/312
f 279/337/308 403/475/448 404/476/449 280/338/306
f 277/342/312 401/477/447 402/478/450 278/343/310
f 280/335/306 404/479/449 405/471/444 281/333/304
f 278/340/310 402/480/450 403/481/448 279/337/308
f 276/348/316 400/482/451 399/483/446 213/349/314
f 23/238/234 232/484/452 231/485/452 230/486/452 212/487/452 320/488/452 247/489/452 254/490/452 261/491/452 377/492/452 388/493/452 398/494/452 387/495/452 286/496/452 275/497/452 282/498/452 406/499/452 400/500/452 276/501/452 307/502/452 228/503/452 361/504/452 363/505/452 362/506/452 143/239/234
f 229/275/250 366/424/404 268/372/349 325/371/348
l 54 81
l 261 286
o tires.001
v -0.127930 0.862884 0.842351
v 1.138015 0.838322 0.842351
v -0.004451 0.838322 0.842351
v 1.033334 0.768376 0.842351
v 0.100230 0.768376 0.842351
v 0.963389 0.663696 0.842351
v 0.170176 0.663696 0.842351
v 0.938827 0.540216 0.842351
v 0.194737 0.540216 0.842351
v 0.963389 0.416736 0.842351
v 0.170176 0.416736 0.842351
v 1.033334 0.312056 0.842351
v 0.100230 0.312056 0.842351
v 1.138015 0.242110 0.842351
v -0.004451 0.242110 0.842351
v 1.261495 0.217548 0.842351
v -0.127930 0.217548 0.842351
v 1.384974 0.242110 0.842351
v -0.251410 0.242110 0.842351
v 1.489655 0.312056 0.842351
v -0.356091 0.312056 0.842351
v 1.559601 0.416736 0.842351
v -0.426036 0.416736 0.842351
v 1.584162 0.540216 0.842351
v -0.450598 0.540216 0.842351
v 1.559601 0.663696 0.842351
v -0.426036 0.663696 0.842351
v 1.489655 0.768376 0.842351
v -0.356091 0.768376 0.842351
v 1.384974 0.838322 0.842351
v -0.251410 0.838322 0.842351
v 1.261495 0.862884 0.842351
v -0.127930 0.827220 1.170645
v -0.127930 0.862884 1.136903
v -0.018099 0.805373 1.170645
v -0.004451 0.838322 1.136903
v 0.075012 0.743158 1.170645
v 0.100230 0.768376 1.136903
v 0.137227 0.650048 1.170645
v 0.170176 0.663696 1.136903
v 0.159074 0.540216 1.170645
v 0.194737 0.540216 1.136903
v 0.137227 0.430384 1.170645
v 0.170176 0.416736 1.136903
v 0.075012 0.337274 1.170645
v 0.100230 0.312055 1.136903
v -0.018099 0.275059 1.170645
v -0.004451 0.242110 1.136903
v -0.127930 0.253212 1.170645
v -0.127930 0.217548 1.136903
v -0.237762 0.275059 1.170645
v -0.251410 0.242110 1.136903
v -0.330873 0.337274 1.170645
v -0.356091 0.312055 1.136903
v -0.393087 0.430384 1.170645
v -0.426036 0.416736 1.136903
v -0.414934 0.540216 1.170645
v -0.450598 0.540216 1.136903
v -0.393087 0.650048 1.170645
v -0.426036 0.663696 1.136903
v -0.330873 0.743158 1.170645
v -0.356091 0.768376 1.136903
v -0.237762 0.805373 1.170645
v -0.251410 0.838322 1.136903
v 1.261495 0.827220 1.170645
v 1.261495 0.862884 1.136903
v 1.371326 0.805373 1.170645
v 1.384974 0.838322 1.136903
v 1.464437 0.743158 1.170645
v 1.489655 0.768376 1.136903
v 1.526652 0.650048 1.170645
v 1.559601 0.663696 1.136903
v 1.548498 0.540216 1.170645
v 1.584162 0.540216 1.136903
v 1.526652 0.430384 1.170645
v 1.559601 0.416736 1.136903
v 1.464437 0.337274 1.170645
v 1.489655 0.312055 1.136903
v 1.371326 0.275059 1.170645
v 1.384974 0.242110 1.136903
v 1.261495 0.253212 1.170645
v 1.261495 0.217548 1.136903
v 1.151663 0.275059 1.170645
v 1.138015 0.242110 1.136903
v 1.058552 0.337274 1.170645
v 1.033334 0.312055 1.136903
v 0.996338 0.430384 1.170645
v 0.963389 0.416736 1.136903
v 0.974491 0.540216 1.170645
v 0.938827 0.540216 1.136903
v 0.996338 0.650048 1.170645
v 0.963389 0.663696 1.136903
v 1.058552 0.743158 1.170645
v 1.033334 0.768376 1.136903
v 1.151663 0.805373 1.170645
v 1.138015 0.838322 1.136903
v -0.127930 0.862884 -0.842351
v 1.138015 0.838322 -0.842351
v -0.004451 0.838322 -0.842351
v 1.033334 0.768376 -0.842351
v 0.100230 0.768376 -0.842351
v 0.963389 0.663696 -0.842351
v 0.170176 0.663696 -0.842351
v 0.938827 0.540216 -0.842351
v 0.194737 0.540216 -0.842351
v 0.963389 0.416736 -0.842351
v 0.170176 0.416736 -0.842351
v 1.033334 0.312056 -0.842351
v 0.100230 0.312056 -0.842351
v 1.138015 0.242110 -0.842351
v -0.004451 0.242110 -0.842351
v 1.261495 0.217548 -0.842351
v -0.127930 0.217548 -0.842351
v 1.384974 0.242110 -0.842351
v -0.251410 0.242110 -0.842351
v 1.489655 0.312056 -0.842351
v -0.356091 0.312056 -0.842351
v 1.559601 0.416736 -0.842351
v -0.426036 0.416736 -0.842351
v 1.584162 0.540216 -0.842351
v -0.450598 0.540216 -0.842351
v 1.559601 0.663696 -0.842351
v -0.426036 0.663696 -0.842351
v 1.489655 0.768376 -0.842351
v -0.356091 0.768376 -0.842351
v 1.384974 0.838322 -0.842351
v -0.251410 0.838322 -0.842351
v 1.261495 0.862884 -0.842351
v -0.127930 0.827220 -1.170645
v -0.127930 0.862884 -1.136903
v -0.018099 0.805373 -1.170645
v -0.004451 0.838322 -1.136903
v 0.075012 0.743158 -1.170645
v 0.100230 0.768376 -1.136903
v 0.137227 0.650048 -1.170645
v 0.170176 0.663696 -1.136903
v 0.159074 0.540216 -1.170645
v 0.194737 0.540216 -1.136903
v 0.137227 0.430384 -1.170645
v 0.170176 0.416736 -1.136903
v 0.075012 0.337274 -1.170645
v 0.100230 0.312055 -1.136903
v -0.018099 0.275059 -1.170645
v -0.004451 0.242110 -1.136903
v -0.127930 0.253212 -1.170645
v -0.127930 0.217548 -1.136903
v -0.237762 0.275059 -1.170645
v -0.251410 0.242110 -1.136903
v -0.330873 0.337274 -1.170645
v -0.356091 0.312055 -1.136903
v -0.393087 0.430384 -1.170645
v -0.426036 0.416736 -1.136903
v -0.414934 0.540216 -1.170645
v -0.450598 0.540216 -1.136903
v -0.393087 0.650048 -1.170645
v -0.426036 0.663696 -1.136903
v -0.330873 0.743158 -1.170645
v -0.356091 0.768376 -1.136903
v -0.237762 0.805373 -1.170645
v -0.251410 0.838322 -1.136903
v 1.261495 0.827220 -1.170645
v 1.261495 0.862884 -1.136903
v 1.371326 0.805373 -1.170645
v 1.384974 0.838322 -1.136903
v 1.464437 0.743158 -1.170645
v 1.489655 0.768376 -1.136903
v 1.526652 0.650048 -1.170645
v 1.559601 0.663696 -1.136903
v 1.548498 0.540216 -1.170645
v 1.584162 0.540216 -1.136903
v 1.526652 0.430384 -1.170645
v 1.559601 0.416736 -1.136903
v 1.464437 0.337274 -1.170645
v 1.489655 0.312055 -1.136903
v 1.371326 0.275059 -1.170645
v 1.384974 0.242110 -1.136903
v 1.261495 0.253212 -1.170645
v 1.261495 0.217548 -1.136903
v 1.151663 0.275059 -1.170645
v 1.138015 0.242110 -1.136903
v 1.058552 0.337274 -1.170645
v 1.033334 0.312055 -1.136903
v 0.996338 0.430384 -1.170645
v 0.963389 0.416736 -1.136903
v 0.974491 0.540216 -1.170645
v 0.938827 0.540216 -1.136903
v 0.996338 0.650048 -1.170645
v 0.963389 0.663696 -1.136903
v 1.058552 0.743158 -1.170645
v 1.033334 0.768376 -1.136903
v 1.151663 0.805373 -1.170645
v 1.138015 0.838322 -1.136903
vn 0.3542 0.8551 0.3786
vn -0.0000 0.9255 0.3786
vn -0.0000 0.4084 0.9128
vn 0.1563 0.3773 0.9128
vn -0.1563 0.3773 0.9128
vn -0.2888 0.2888 0.9128
vn -0.3773 0.1563 0.9128
vn -0.4084 -0.0000 0.9128
vn -0.3773 -0.1563 0.9128
vn -0.2888 -0.2888 0.9128
vn -0.1563 -0.3773 0.9128
vn -0.0000 -0.4084 0.9128
vn 0.1563 -0.3773 0.9128
vn 0.2888 -0.2888 0.9128
vn 0.3773 -0.1563 0.9128
vn 0.4084 -0.0000 0.9128
vn 0.3773 0.1563 0.9128
vn 0.2888 0.2888 0.9128
vn -0.3542 0.8551 0.3786
vn -0.6545 0.6545 0.3786
vn -0.8551 0.3542 0.3786
vn -0.9255 -0.0000 0.3786
vn -0.8551 -0.3542 0.3786
vn -0.6545 -0.6545 0.3786
vn -0.3542 -0.8551 0.3786
vn -0.0000 -0.9255 0.3786
vn 0.3542 -0.8551 0.3786
vn 0.6545 -0.6545 0.3786
vn 0.8551 -0.3542 0.3786
vn 0.9255 -0.0000 0.3786
vn 0.8551 0.3542 0.3786
vn 0.6545 0.6545 0.3786
vn -0.0000 -0.0000 -1.0000
vn -0.0000 1.0000 -0.0000
vn 0.3827 0.9239 -0.0000
vn -0.3827 0.9239 -0.0000
vn 0.7071 0.7071 -0.0000
vn 0.9239 0.3827 -0.0000
vn 1.0000 -0.0000 -0.0000
vn 0.9239 -0.3827 -0.0000
vn 0.7071 -0.7071 -0.0000
vn 0.3827 -0.9239 -0.0000
vn -0.0000 -1.0000 -0.0000
vn -0.3827 -0.9239 -0.0000
vn -0.7071 -0.7071 -0.0000
vn -0.9239 -0.3827 -0.0000
vn -1.0000 -0.0000 -0.0000
vn -0.9239 0.3827 -0.0000
vn -0.7071 0.7071 -0.0000
vn 0.3542 0.8551 -0.3786
vn 0.1563 0.3773 -0.9128
vn -0.0000 0.4084 -0.9128
vn -0.0000 0.9255 -0.3786
vn 0.2888 0.2888 -0.9128
vn 0.3773 0.1563 -0.9128
vn 0.4084 -0.0000 -0.9128
vn 0.3773 -0.1563 -0.9128
vn 0.2888 -0.2888 -0.9128
vn 0.1563 -0.3773 -0.9128
vn -0.0000 -0.4084 -0.9128
vn -0.1563 -0.3773 -0.9128
vn -0.2888 -0.2888 -0.9128
vn -0.3773 -0.1563 -0.9128
vn -0.4084 -0.0000 -0.9128
vn -0.3773 0.1563 -0.9128
vn -0.2888 0.2888 -0.9128
vn -0.1563 0.3773 -0.9128
vn -0.3542 0.8551 -0.3786
vn -0.6545 0.6545 -0.3786
vn -0.8551 0.3542 -0.3786
vn -0.9255 -0.0000 -0.3786
vn -0.8551 -0.3542 -0.3786
vn -0.6545 -0.6545 -0.3786
vn -0.3542 -0.8551 -0.3786
vn -0.0000 -0.9255 -0.3786
vn 0.3542 -0.8551 -0.3786
vn 0.6545 -0.6545 -0.3786
vn 0.8551 -0.3542 -0.3786
vn 0.9255 -0.0000 -0.3786
vn 0.8551 0.3542 -0.3786
vn 0.6545 0.6545 -0.3786
vn -0.0000 -0.0000 1.0000
vt 0.056779 0.527051
vt 0.030641 0.513998
vt 0.037436 0.504413
vt 0.061273 0.516657
vt 0.944544 0.113415
vt 0.924754 0.133204
vt 0.898898 0.143914
vt 0.870912 0.143914
vt 0.845056 0.133204
vt 0.825267 0.113414
vt 0.814557 0.087558
vt 0.814557 0.059572
vt 0.825267 0.033716
vt 0.845056 0.013927
vt 0.870912 0.003217
vt 0.898899 0.003217
vt 0.924755 0.013927
vt 0.944544 0.033716
vt 0.955254 0.059572
vt 0.955254 0.087559
vt 0.493973 0.515477
vt 0.464042 0.529535
vt 0.459171 0.517595
vt 0.486551 0.504413
vt 0.434024 0.540319
vt 0.429912 0.527495
vt 0.403730 0.548874
vt 0.400444 0.536562
vt 0.374157 0.555462
vt 0.371808 0.543636
vt 0.344536 0.560525
vt 0.342921 0.548068
vt 0.313938 0.563988
vt 0.312879 0.550842
vt 0.283299 0.565435
vt 0.282746 0.552941
vt 0.253596 0.566056
vt 0.253582 0.553960
vt 0.224730 0.564949
vt 0.225443 0.553483
vt 0.196214 0.562357
vt 0.197751 0.550572
vt 0.167514 0.557888
vt 0.169740 0.545960
vt 0.138630 0.552043
vt 0.141406 0.539744
vt 0.110273 0.544921
vt 0.113322 0.533366
vt 0.083037 0.536816
vt 0.086637 0.525803
vt 0.800125 0.490141
vt 0.768661 0.490141
vt 0.739592 0.478100
vt 0.717343 0.455852
vt 0.705303 0.426783
vt 0.705303 0.395319
vt 0.717343 0.366250
vt 0.739592 0.344002
vt 0.768661 0.331961
vt 0.800125 0.331961
vt 0.829193 0.344002
vt 0.851442 0.366250
vt 0.863483 0.395319
vt 0.863483 0.426783
vt 0.851442 0.455852
vt 0.829193 0.478100
vt 0.601657 0.467588
vt 0.587436 0.494857
vt 0.577066 0.487308
vt 0.590808 0.462409
vt 0.612493 0.440936
vt 0.601544 0.436811
vt 0.621464 0.414265
vt 0.610426 0.410871
vt 0.628791 0.387389
vt 0.617717 0.384697
vt 0.634234 0.360411
vt 0.623347 0.358552
vt 0.638262 0.332890
vt 0.626676 0.331688
vt 0.640639 0.304270
vt 0.628570 0.303665
vt 0.641712 0.274675
vt 0.629049 0.274557
vt 0.641001 0.245078
vt 0.629162 0.245539
vt 0.639099 0.215688
vt 0.626864 0.216833
vt 0.635874 0.185602
vt 0.623360 0.187470
vt 0.630410 0.155232
vt 0.617763 0.157910
vt 0.623357 0.124428
vt 0.610294 0.127812
vt 0.614363 0.094084
vt 0.602286 0.097985
vt 0.603660 0.063921
vt 0.591406 0.069225
vt 0.588946 0.032853
vt 0.577066 0.040866
vt 0.452317 0.941440
vt 0.432528 0.961229
vt 0.406672 0.971939
vt 0.378685 0.971939
vt 0.352830 0.961229
vt 0.333040 0.941440
vt 0.322330 0.915584
vt 0.322330 0.887598
vt 0.333040 0.861742
vt 0.352830 0.841953
vt 0.378686 0.831243
vt 0.406672 0.831243
vt 0.432528 0.841953
vt 0.452317 0.861742
vt 0.463027 0.887598
vt 0.463027 0.915584
vt 0.653801 0.522469
vt 0.665603 0.494104
vt 0.679174 0.038425
vt 0.667053 0.003974
vt 0.676923 0.464731
vt 0.686870 0.434895
vt 0.695322 0.404596
vt 0.702258 0.373822
vt 0.707717 0.342394
vt 0.711630 0.310143
vt 0.713874 0.277161
vt 0.714354 0.243727
vt 0.713089 0.209876
vt 0.709699 0.175948
vt 0.704888 0.141770
vt 0.698193 0.107291
vt 0.689589 0.072828
vt 0.003451 0.578870
vt 0.031179 0.590492
vt 0.488802 0.603851
vt 0.522470 0.591873
vt 0.060360 0.601822
vt 0.090583 0.611937
vt 0.121797 0.620607
vt 0.153680 0.627644
vt 0.185926 0.633006
vt 0.218505 0.636734
vt 0.251600 0.638856
vt 0.285385 0.639269
vt 0.319348 0.637485
vt 0.353220 0.634297
vt 0.387008 0.629373
vt 0.420876 0.622714
vt 0.454911 0.614206
vt 0.099327 0.888511
vt 0.067863 0.888511
vt 0.038794 0.876470
vt 0.016546 0.854222
vt 0.004505 0.825153
vt 0.004505 0.793689
vt 0.016546 0.764620
vt 0.038794 0.742372
vt 0.067863 0.730331
vt 0.099327 0.730331
vt 0.128396 0.742372
vt 0.150644 0.764620
vt 0.162685 0.793689
vt 0.162685 0.825153
vt 0.150644 0.854222
vt 0.128396 0.876470
vt 0.496313 0.057932
vt 0.485363 0.062614
vt 0.472401 0.037191
vt 0.483031 0.029948
vt 0.866981 0.444601
vt 0.886771 0.424811
vt 0.912626 0.414102
vt 0.940613 0.414102
vt 0.966469 0.424811
vt 0.986258 0.444601
vt 0.996968 0.470457
vt 0.996968 0.498443
vt 0.986258 0.524299
vt 0.966469 0.544088
vt 0.940613 0.554798
vt 0.912626 0.554798
vt 0.886770 0.544088
vt 0.866981 0.524299
vt 0.856271 0.498443
vt 0.856271 0.470457
vt 0.483266 0.493466
vt 0.472401 0.485874
vt 0.486032 0.458889
vt 0.497920 0.464187
vt 0.497118 0.431115
vt 0.508841 0.435237
vt 0.505968 0.403710
vt 0.517332 0.406792
vt 0.512186 0.375893
vt 0.524156 0.378227
vt 0.516708 0.347113
vt 0.529145 0.348701
vt 0.519273 0.317263
vt 0.532306 0.318323
vt 0.521606 0.287342
vt 0.533950 0.287985
vt 0.522899 0.258587
vt 0.534637 0.258609
vt 0.521795 0.230113
vt 0.533971 0.229372
vt 0.519040 0.201002
vt 0.531602 0.199670
vt 0.515975 0.172385
vt 0.527484 0.170614
vt 0.510617 0.144874
vt 0.522278 0.142291
vt 0.503558 0.117301
vt 0.515259 0.114009
vt 0.494801 0.089660
vt 0.506732 0.085663
vt 0.466364 0.855613
vt 0.444116 0.833365
vt 0.432075 0.804296
vt 0.432075 0.772832
vt 0.444116 0.743763
vt 0.466364 0.721515
vt 0.495433 0.709474
vt 0.526897 0.709474
vt 0.555966 0.721515
vt 0.578214 0.743763
vt 0.590255 0.772832
vt 0.590255 0.804296
vt 0.578214 0.833365
vt 0.555966 0.855613
vt 0.526897 0.867654
vt 0.495433 0.867654
vt 0.345233 0.665434
vt 0.343679 0.653072
vt 0.373036 0.648499
vt 0.375104 0.661221
vt 0.315553 0.668390
vt 0.314617 0.656109
vt 0.285913 0.669867
vt 0.285616 0.657619
vt 0.256329 0.669786
vt 0.256689 0.657598
vt 0.226917 0.668046
vt 0.227968 0.656019
vt 0.197968 0.664404
vt 0.199783 0.652815
vt 0.168872 0.659207
vt 0.171559 0.647061
vt 0.139012 0.652171
vt 0.142386 0.639489
vt 0.109608 0.643305
vt 0.113316 0.631573
vt 0.080134 0.633478
vt 0.085098 0.621424
vt 0.049525 0.619631
vt 0.057154 0.607893
vt 0.487296 0.631004
vt 0.482743 0.620202
vt 0.507456 0.607892
vt 0.514334 0.617853
vt 0.460098 0.641086
vt 0.456263 0.629461
vt 0.432432 0.648986
vt 0.429486 0.637844
vt 0.404431 0.655685
vt 0.402055 0.643788
vt 0.772843 0.277358
vt 0.772843 0.249372
vt 0.783553 0.223516
vt 0.803342 0.203726
vt 0.829198 0.193017
vt 0.857184 0.193017
vt 0.883040 0.203727
vt 0.902830 0.223516
vt 0.913539 0.249372
vt 0.913539 0.277358
vt 0.902830 0.303214
vt 0.883040 0.323003
vt 0.857184 0.333713
vt 0.829198 0.333713
vt 0.803342 0.323003
vt 0.783553 0.303214
vt 0.387957 0.732328
vt 0.354950 0.737459
vt 0.420405 0.725489
vt 0.321722 0.740844
vt 0.288387 0.742512
vt 0.255033 0.742466
vt 0.221722 0.740713
vt 0.188456 0.737262
vt 0.155053 0.732104
vt 0.121411 0.725126
vt 0.087817 0.716269
vt 0.054780 0.705459
vt 0.022950 0.694100
vt 0.541241 0.684663
vt 0.512685 0.696164
vt 0.482724 0.707316
vt 0.451964 0.717127
vt 0.551519 0.003160
vt 0.562969 0.032433
vt 0.569684 0.489719
vt 0.557499 0.522470
vt 0.574038 0.062992
vt 0.583724 0.094232
vt 0.591812 0.125942
vt 0.598299 0.158086
vt 0.603214 0.190772
vt 0.606457 0.223921
vt 0.607983 0.257309
vt 0.607819 0.291107
vt 0.605453 0.325028
vt 0.601336 0.358477
vt 0.595937 0.391430
vt 0.588908 0.424178
vt 0.580191 0.456901
vt 0.203565 0.897327
vt 0.181317 0.875079
vt 0.169276 0.846010
vt 0.169276 0.814546
vt 0.181317 0.785477
vt 0.203565 0.763229
vt 0.232634 0.751188
vt 0.264098 0.751188
vt 0.293167 0.763229
vt 0.315415 0.785477
vt 0.327456 0.814546
vt 0.327456 0.846010
vt 0.315415 0.875079
vt 0.293167 0.897327
vt 0.264098 0.909368
vt 0.232634 0.909368
s 1
usemtl MAT_tires_001_Handpaint
f 474/507/453 472/508/454 471/509/455 473/510/456
f 473/511/456 471/512/455 501/513/457 499/514/458 497/515/459 495/516/460 493/517/461 491/518/462 489/519/463 487/520/464 485/521/465 483/522/466 481/523/467 479/524/468 477/525/469 475/526/470
f 472/527/454 502/528/471 501/529/457 471/530/455
f 502/528/471 500/531/472 499/532/458 501/529/457
f 500/531/472 498/533/473 497/534/459 499/532/458
f 498/533/473 496/535/474 495/536/460 497/534/459
f 496/535/474 494/537/475 493/538/461 495/536/460
f 494/537/475 492/539/476 491/540/462 493/538/461
f 492/539/476 490/541/477 489/542/463 491/540/462
f 490/541/477 488/543/478 487/544/464 489/542/463
f 488/543/478 486/545/479 485/546/465 487/544/464
f 486/545/479 484/547/480 483/548/466 485/546/465
f 484/547/480 482/549/481 481/550/467 483/548/466
f 482/549/481 480/551/482 479/552/468 481/550/467
f 480/551/482 478/553/483 477/554/469 479/552/468
f 478/553/483 476/555/484 475/556/470 477/554/469
f 476/555/484 474/507/453 473/510/456 475/556/470
f 407/557/485 409/558/485 411/559/485 413/560/485 415/561/485 417/562/485 419/563/485 421/564/485 423/565/485 425/566/485 427/567/485 429/568/485 431/569/485 433/570/485 435/571/485 437/572/485
f 442/573/453 440/574/454 439/575/455 441/576/456
f 444/577/484 442/573/453 441/576/456 443/578/470
f 446/579/483 444/577/484 443/578/470 445/580/469
f 448/581/482 446/579/483 445/580/469 447/582/468
f 450/583/481 448/581/482 447/582/468 449/584/467
f 452/585/480 450/583/481 449/584/467 451/586/466
f 454/587/479 452/585/480 451/586/466 453/588/465
f 456/589/478 454/587/479 453/588/465 455/590/464
f 458/591/477 456/589/478 455/590/464 457/592/463
f 460/593/476 458/591/477 457/592/463 459/594/462
f 462/595/475 460/593/476 459/594/462 461/596/461
f 464/597/474 462/595/475 461/596/461 463/598/460
f 466/599/473 464/597/474 463/598/460 465/600/459
f 468/601/472 466/599/473 465/600/459 467/602/458
f 470/603/471 468/601/472 467/602/458 469/604/457
f 440/605/454 470/603/471 469/604/457 439/606/455
f 441/607/456 439/608/455 469/609/457 467/610/458 465/611/459 463/612/460 461/613/461 459/614/462 457/615/463 455/616/464 453/617/465 451/618/466 449/619/467 447/620/468 445/621/469 443/622/470
f 407/623/486 440/574/454 442/573/453 409/624/487
f 437/625/488 470/603/471 440/605/454 407/626/486
f 409/624/487 442/573/453 444/577/484 411/627/489
f 411/627/489 444/577/484 446/579/483 413/628/490
f 413/628/490 446/579/483 448/581/482 415/629/491
f 415/629/491 448/581/482 450/583/481 417/630/492
f 417/630/492 450/583/481 452/585/480 419/631/493
f 419/631/493 452/585/480 454/587/479 421/632/494
f 421/632/494 454/587/479 456/589/478 423/633/495
f 423/633/495 456/589/478 458/591/477 425/634/496
f 425/634/496 458/591/477 460/593/476 427/635/497
f 427/635/497 460/593/476 462/595/475 429/636/498
f 429/636/498 462/595/475 464/597/474 431/637/499
f 431/637/499 464/597/474 466/599/473 433/638/500
f 433/638/500 466/599/473 468/601/472 435/639/501
f 435/639/501 468/601/472 470/603/471 437/625/488
f 438/640/486 472/508/454 474/507/453 436/641/487
f 408/642/488 502/528/471 472/527/454 438/643/486
f 436/641/487 474/507/453 476/555/484 434/644/489
f 434/644/489 476/555/484 478/553/483 432/645/490
f 432/645/490 478/553/483 480/551/482 430/646/491
f 430/646/491 480/551/482 482/549/481 428/647/492
f 428/647/492 482/549/481 484/547/480 426/648/493
f 426/648/493 484/547/480 486/545/479 424/649/494
f 424/649/494 486/545/479 488/543/478 422/650/495
f 422/650/495 488/543/478 490/541/477 420/651/496
f 420/651/496 490/541/477 492/539/476 418/652/497
f 418/652/497 492/539/476 494/537/475 416/653/498
f 416/653/498 494/537/475 496/535/474 414/654/499
f 414/654/499 496/535/474 498/533/473 412/655/500
f 412/655/500 498/533/473 500/531/472 410/656/501
f 410/656/501 500/531/472 502/528/471 408/642/488
f 408/657/485 438/658/485 436/659/485 434/660/485 432/661/485 430/662/485 428/663/485 426/664/485 424/665/485 422/666/485 420/667/485 418/668/485 416/669/485 414/670/485 412/671/485 410/672/485
f 570/673/502 569/674/503 567/675/504 568/676/505
f 569/677/503 571/678/506 573/679/507 575/680/508 577/681/509 579/682/510 581/683/511 583/684/512 585/685/513 587/686/514 589/687/515 591/688/516 593/689/517 595/690/518 597/691/519 567/692/504
f 568/693/505 567/694/504 597/695/519 598/696/520
f 598/696/520 597/695/519 595/697/518 596/698/521
f 596/698/521 595/697/518 593/699/517 594/700/522
f 594/700/522 593/699/517 591/701/516 592/702/523
f 592/702/523 591/701/516 589/703/515 590/704/524
f 590/704/524 589/703/515 587/705/514 588/706/525
f 588/706/525 587/705/514 585/707/513 586/708/526
f 586/708/526 585/707/513 583/709/512 584/710/527
f 584/710/527 583/709/512 581/711/511 582/712/528
f 582/712/528 581/711/511 579/713/510 580/714/529
f 580/714/529 579/713/510 577/715/509 578/716/530
f 578/716/530 577/715/509 575/717/508 576/718/531
f 576/718/531 575/717/508 573/719/507 574/720/532
f 574/720/532 573/719/507 571/721/506 572/722/533
f 572/722/533 571/721/506 569/674/503 570/673/502
f 503/723/534 533/724/534 531/725/534 529/726/534 527/727/534 525/728/534 523/729/534 521/730/534 519/731/534 517/732/534 515/733/534 513/734/534 511/735/534 509/736/534 507/737/534 505/738/534
f 538/739/502 537/740/503 535/741/504 536/742/505
f 540/743/533 539/744/506 537/740/503 538/739/502
f 542/745/532 541/746/507 539/744/506 540/743/533
f 544/747/531 543/748/508 541/746/507 542/745/532
f 546/749/530 545/750/509 543/748/508 544/747/531
f 548/751/529 547/752/510 545/750/509 546/749/530
f 550/753/528 549/754/511 547/752/510 548/751/529
f 552/755/527 551/756/512 549/754/511 550/753/528
f 554/757/526 553/758/513 551/756/512 552/755/527
f 556/759/525 555/760/514 553/758/513 554/757/526
f 558/761/524 557/762/515 555/760/514 556/759/525
f 560/763/523 559/764/516 557/765/515 558/766/524
f 562/767/522 561/768/517 559/764/516 560/763/523
f 564/769/521 563/770/518 561/768/517 562/767/522
f 566/771/520 565/772/519 563/770/518 564/769/521
f 536/742/505 535/741/504 565/772/519 566/771/520
f 537/773/503 539/774/506 541/775/507 543/776/508 545/777/509 547/778/510 549/779/511 551/780/512 553/781/513 555/782/514 557/783/515 559/784/516 561/785/517 563/786/518 565/787/519 535/788/504
f 503/789/486 505/790/487 538/739/502 536/742/505
f 533/791/488 503/789/486 536/742/505 566/771/520
f 505/790/487 507/792/489 540/743/533 538/739/502
f 507/792/489 509/793/490 542/745/532 540/743/533
f 509/793/490 511/794/491 544/747/531 542/745/532
f 511/794/491 513/795/492 546/749/530 544/747/531
f 513/795/492 515/796/493 548/751/529 546/749/530
f 515/796/493 517/797/494 550/753/528 548/751/529
f 517/797/494 519/798/495 552/755/527 550/753/528
f 519/798/495 521/799/496 554/757/526 552/755/527
f 521/799/496 523/800/497 556/759/525 554/757/526
f 523/800/497 525/801/498 558/761/524 556/759/525
f 525/802/498 527/803/499 560/763/523 558/766/524
f 527/803/499 529/804/500 562/767/522 560/763/523
f 529/804/500 531/805/501 564/769/521 562/767/522
f 531/805/501 533/791/488 566/771/520 564/769/521
f 534/806/486 532/807/487 570/673/502 568/676/505
f 504/808/488 534/809/486 568/693/505 598/696/520
f 532/807/487 530/810/489 572/722/533 570/673/502
f 530/810/489 528/811/490 574/720/532 572/722/533
f 528/811/490 526/812/491 576/718/531 574/720/532
f 526/812/491 524/813/492 578/716/530 576/718/531
f 524/813/492 522/814/493 580/714/529 578/716/530
f 522/814/493 520/815/494 582/712/528 580/714/529
f 520/815/494 518/816/495 584/710/527 582/712/528
f 518/816/495 516/817/496 586/708/526 584/710/527
f 516/817/496 514/818/497 588/706/525 586/708/526
f 514/818/497 512/819/498 590/704/524 588/706/525
f 512/819/498 510/820/499 592/702/523 590/704/524
f 510/820/499 508/821/500 594/700/522 592/702/523
f 508/821/500 506/822/501 596/698/521 594/700/522
f 506/822/501 504/808/488 598/696/520 596/698/521
f 504/823/534 506/824/534 508/825/534 510/826/534 512/827/534 514/828/534 516/829/534 518/830/534 520/831/534 522/832/534 524/833/534 526/834/534 528/835/534 530/836/534 532/837/534 534/838/534
o window.001
v 0.048024 1.341702 0.628960
v 0.028794 1.289681 0.634186
v -0.006446 1.168273 0.640756
v -0.027359 1.124172 0.632194
v -0.028095 1.123166 0.632278
v -0.046070 1.107891 0.602064
v -0.062471 1.113171 0.542306
v -0.071352 1.117701 0.488185
v -0.076839 1.126758 0.386985
v -0.080589 1.129667 0.330237
v -0.091207 1.131459 0.193868
v -0.090601 1.130538 0.138037
v -0.074753 1.123208 -0.000000
v -0.090601 1.130538 -0.138037
v -0.091207 1.131459 -0.193868
v -0.080589 1.129667 -0.330237
v -0.076839 1.126758 -0.386985
v -0.071352 1.117701 -0.488185
v -0.062471 1.113171 -0.542306
v -0.046070 1.107891 -0.602064
v -0.028095 1.123166 -0.632278
v -0.027359 1.124172 -0.632194
v -0.006446 1.168273 -0.640756
v 0.028794 1.289681 -0.634186
v 0.048024 1.341702 -0.628960
v 0.117272 1.494424 -0.606145
v 0.132222 1.534701 -0.585365
v 0.148161 1.594930 -0.525931
v 0.152518 1.617200 -0.483673
v 0.150927 1.637596 -0.372810
v 0.150224 1.647414 -0.317504
v 0.148696 1.669393 -0.187666
v 0.148829 1.674224 -0.132807
v 0.151354 1.675446 -0.000000
v 0.148829 1.674224 0.132807
v 0.148696 1.669393 0.187666
v 0.150224 1.647414 0.317504
v 0.150927 1.637596 0.372810
v 0.152518 1.617200 0.483673
v 0.148161 1.594930 0.525931
v 0.132222 1.534701 0.585365
v 0.117272 1.494424 0.606145
vn -0.9156 0.4020 -0.0000
vt 0.764895 0.195639
vt 0.739742 0.192212
vt 0.733314 0.189061
vt 0.724091 0.180019
vt 0.720790 0.173626
vt 0.718143 0.156924
vt 0.716856 0.148596
vt 0.713974 0.129053
vt 0.713318 0.120818
vt 0.713005 0.100895
vt 0.713318 0.080972
vt 0.713974 0.072737
vt 0.716856 0.053194
vt 0.718143 0.044866
vt 0.720790 0.028164
vt 0.724091 0.021771
vt 0.733314 0.012729
vt 0.739742 0.009578
vt 0.764895 0.006151
vt 0.773206 0.005285
vt 0.792124 0.003648
vt 0.799439 0.004967
vt 0.799627 0.004966
vt 0.802778 0.009775
vt 0.802997 0.019102
vt 0.802933 0.027356
vt 0.802040 0.042593
vt 0.801884 0.051134
vt 0.802325 0.071649
vt 0.802429 0.080024
vt 0.802517 0.100895
vt 0.802429 0.121766
vt 0.802325 0.130142
vt 0.801884 0.150656
vt 0.802040 0.159197
vt 0.802933 0.174434
vt 0.802997 0.182689
vt 0.802778 0.192015
vt 0.799627 0.196824
vt 0.799439 0.196823
vt 0.792124 0.198142
vt 0.773206 0.196505
s 1
usemtl MAT_window_001_Handpaint
f 599/839/535 640/840/535 639/841/535 638/842/535 637/843/535 636/844/535 635/845/535 634/846/535 633/847/535 632/848/535 631/849/535 630/850/535 629/851/535 628/852/535 627/853/535 626/854/535 625/855/535 624/856/535 623/857/535 622/858/535 621/859/535 620/860/535 619/861/535 618/862/535 617/863/535 616/864/535 615/865/535 614/866/535 613/867/535 612/868/535 611/869/535 610/870/535 609/871/535 608/872/535 607/873/535 606/874/535 605/875/535 604/876/535 603/877/535 602/878/535 601/879/535 600/880/535
o window_sides
v 0.048024 1.341702 0.628960
v 0.069412 1.335609 0.650417
v 0.042248 1.347795 0.658700
v 0.028794 1.289681 0.634186
v 0.050403 1.284186 0.655583
v 0.022393 1.294083 0.664097
v -0.006446 1.168273 0.640756
v 0.013877 1.159150 0.662174
v -0.014080 1.169197 0.670686
v -0.027359 1.124172 0.632194
v -0.010546 1.107648 0.652175
v -0.037333 1.120161 0.661166
v -0.028095 1.123166 0.632278
v -0.017038 1.098437 0.647152
v -0.043317 1.111676 0.656594
v -0.046070 1.107891 0.602064
v -0.041629 1.077540 0.605815
v -0.068278 1.090463 0.614634
v -0.062471 1.113171 0.542306
v -0.060165 1.082499 0.539322
v -0.087382 1.095337 0.546354
v -0.071352 1.117701 0.488185
v -0.069034 1.087023 0.485276
v -0.096724 1.100102 0.489423
v -0.076839 1.126758 0.386985
v -0.074470 1.096032 0.384681
v -0.102290 1.109233 0.387284
v -0.080589 1.129667 0.330237
v -0.078146 1.098883 0.329070
v -0.105977 1.112093 0.331499
v -0.091207 1.131459 0.193868
v -0.088704 1.100658 0.193836
v -0.116615 1.113890 0.194747
v -0.090601 1.130538 0.138037
v -0.088115 1.099760 0.139261
v -0.115982 1.112936 0.137058
v -0.094204 1.123208 -0.000000
v -0.072229 1.092408 -0.000000
v -0.119615 1.105622 -0.000000
v -0.090601 1.130538 -0.138037
v -0.088115 1.099760 -0.139261
v -0.115982 1.112936 -0.137058
v -0.091207 1.131459 -0.193868
v -0.088704 1.100658 -0.193836
v -0.116615 1.113890 -0.194747
v -0.080589 1.129667 -0.330237
v -0.078146 1.098883 -0.329070
v -0.105977 1.112093 -0.331499
v -0.076839 1.126758 -0.386985
v -0.074470 1.096032 -0.384681
v -0.102290 1.109233 -0.387284
v -0.071352 1.117701 -0.488185
v -0.069034 1.087023 -0.485276
v -0.096724 1.100102 -0.489423
v -0.062471 1.113171 -0.542306
v -0.060165 1.082499 -0.539322
v -0.087382 1.095337 -0.546354
v -0.046070 1.107891 -0.602064
v -0.041629 1.077540 -0.605815
v -0.068278 1.090463 -0.614634
v -0.028095 1.123166 -0.632278
v -0.017038 1.098437 -0.647152
v -0.043317 1.111675 -0.656594
v -0.027359 1.124172 -0.632194
v -0.010546 1.107648 -0.652175
v -0.037333 1.120161 -0.661166
v -0.006446 1.168273 -0.640756
v 0.013877 1.159150 -0.662174
v -0.014080 1.169197 -0.670686
v 0.028794 1.289681 -0.634186
v 0.050403 1.284186 -0.655583
v 0.022393 1.294083 -0.664097
v 0.048024 1.341702 -0.628960
v 0.069412 1.335609 -0.650417
v 0.042248 1.347795 -0.658700
v 0.117272 1.494424 -0.606145
v 0.140076 1.491768 -0.626831
v 0.113492 1.505362 -0.634799
v 0.132222 1.534701 -0.585365
v 0.157598 1.538974 -0.602476
v 0.131217 1.553115 -0.610161
v 0.148161 1.594930 -0.525931
v 0.175057 1.604506 -0.537759
v 0.148975 1.619689 -0.544406
v 0.152518 1.617200 -0.483673
v 0.180055 1.630055 -0.489278
v 0.154187 1.646330 -0.493853
v 0.150927 1.637596 -0.372810
v 0.178512 1.651362 -0.374947
v 0.152660 1.667957 -0.378303
v 0.150224 1.647414 -0.317504
v 0.177807 1.661195 -0.319556
v 0.151954 1.677818 -0.322754
v 0.148696 1.669393 -0.187666
v 0.176276 1.683235 -0.189316
v 0.150415 1.699998 -0.191588
v 0.148829 1.674224 -0.132807
v 0.176411 1.688126 -0.133778
v 0.150555 1.705041 -0.134323
v 0.151354 1.675446 -0.000000
v 0.178942 1.689371 -0.000000
v 0.153088 1.706300 -0.000000
v 0.148829 1.674224 0.132807
v 0.176411 1.688126 0.133778
v 0.150555 1.705041 0.134323
v 0.148696 1.669393 0.187666
v 0.176276 1.683235 0.189316
v 0.150415 1.699998 0.191588
v 0.150224 1.647414 0.317504
v 0.177807 1.661195 0.319556
v 0.151954 1.677818 0.322754
v 0.150927 1.637596 0.372810
v 0.178512 1.651362 0.374947
v 0.152660 1.667957 0.378303
v 0.152518 1.617200 0.483673
v 0.180055 1.630055 0.489278
v 0.154187 1.646330 0.493853
v 0.148161 1.594930 0.525931
v 0.175057 1.604506 0.537759
v 0.148975 1.619689 0.544406
v 0.132222 1.534701 0.585365
v 0.157598 1.538974 0.602476
v 0.131217 1.553115 0.610161
v 0.117272 1.494424 0.606145
v 0.140076 1.491768 0.626831
v 0.113492 1.505362 0.634799
vn -0.3103 0.0085 -0.9506
vn 0.9040 -0.3377 0.2621
vn 0.9234 -0.2854 0.2568
vn -0.3032 0.0271 -0.9525
vn -0.6200 0.3432 0.7056
vn -0.6474 0.2679 0.7135
vn 0.8897 -0.3567 0.2849
vn -0.2128 0.1443 -0.9664
vn -0.6152 0.1826 0.7670
vn 0.7892 -0.5629 0.2454
vn -0.0745 0.3309 -0.9407
vn -0.6507 0.1073 0.7517
vn 0.6244 -0.7593 0.1830
vn 0.0181 0.6775 -0.7353
vn -0.7379 -0.0639 0.6718
vn 0.4916 -0.8698 -0.0429
vn 0.3230 0.8969 -0.3021
vn -0.8897 -0.1953 0.4126
vn 0.5309 -0.8280 -0.1805
vn 0.4000 0.9164 -0.0131
vn -0.9735 -0.0908 0.2099
vn 0.5392 -0.8320 -0.1307
vn 0.4066 0.9129 0.0349
vn -0.9914 -0.0839 0.1007
vn 0.5710 -0.8158 -0.0917
vn 0.4299 0.9021 0.0377
vn -0.9960 -0.0705 0.0550
vn 0.5726 -0.8170 -0.0676
vn 0.4274 0.9041 -0.0017
vn -0.9950 -0.0713 0.0693
vn 0.5552 -0.8315 -0.0172
vn 0.4045 0.9144 -0.0152
vn -0.9969 -0.0713 0.0334
vn 0.6255 -0.7791 0.0421
vn 0.3557 0.9346 -0.0076
vn -0.9952 -0.0974 -0.0015
vn 0.7292 -0.6843 -0.0000
vn 0.2805 0.9598 -0.0000
vn -0.9873 -0.1587 -0.0000
vn 0.6255 -0.7791 -0.0421
vn 0.3557 0.9346 0.0076
vn -0.9952 -0.0974 0.0015
vn 0.5552 -0.8315 0.0172
vn 0.4045 0.9144 0.0152
vn -0.9969 -0.0713 -0.0334
vn 0.5726 -0.8170 0.0676
vn 0.4274 0.9041 0.0017
vn -0.9950 -0.0713 -0.0693
vn 0.5710 -0.8158 0.0917
vn 0.4299 0.9021 -0.0377
vn -0.9960 -0.0705 -0.0550
vn 0.5392 -0.8320 0.1307
vn 0.4066 0.9129 -0.0349
vn -0.9914 -0.0839 -0.1007
vn 0.5309 -0.8280 0.1805
vn 0.4000 0.9164 0.0131
vn -0.9735 -0.0908 -0.2099
vn 0.4916 -0.8698 0.0429
vn 0.3230 0.8969 0.3021
vn -0.8897 -0.1953 -0.4126
vn 0.6244 -0.7593 -0.1830
vn 0.0181 0.6775 0.7353
vn -0.7379 -0.0639 -0.6718
vn 0.7892 -0.5629 -0.2454
vn -0.0745 0.3309 0.9407
vn -0.6507 0.1073 -0.7517
vn 0.8897 -0.3567 -0.2849
vn -0.2128 0.1443 0.9664
vn -0.6152 0.1826 -0.7670
vn 0.9234 -0.2854 -0.2568
vn -0.3032 0.0271 0.9525
vn -0.6474 0.2679 -0.7135
vn 0.9040 -0.3377 -0.2621
vn -0.3103 0.0085 0.9506
vn -0.6200 0.3432 -0.7056
vn 0.9112 -0.2762 -0.3058
vn -0.3618 -0.1517 0.9198
vn -0.5146 0.4514 -0.7290
vn 0.9619 -0.1396 -0.2353
vn -0.4615 -0.4205 0.7812
vn -0.4541 0.6163 -0.6434
vn 0.9886 -0.0394 -0.1450
vn -0.5373 -0.6297 0.5610
vn -0.4213 0.7628 -0.4906
vn 0.9988 0.0125 -0.0464
vn -0.5654 -0.7716 0.2913
vn -0.3993 0.8710 -0.2862
vn 0.9985 -0.0511 0.0218
vn -0.5491 -0.8236 0.1421
vn -0.4504 0.8773 -0.1658
vn 0.9985 -0.0509 0.0211
vn -0.5489 -0.8247 0.1363
vn -0.4500 0.8790 -0.1579
vn 0.9994 -0.0329 0.0089
vn -0.5604 -0.8218 0.1030
vn -0.4454 0.8878 -0.1161
vn 0.9994 -0.0348 -0.0090
vn -0.5608 -0.8267 0.0462
vn -0.4460 0.8942 -0.0387
vn 0.9987 -0.0506 -0.0000
vn -0.5430 -0.8397 -0.0000
vn -0.4401 0.8979 -0.0000
vn 0.9994 -0.0348 0.0090
vn -0.5608 -0.8267 -0.0462
vn -0.4460 0.8942 0.0387
vn 0.9994 -0.0329 -0.0089
vn -0.5604 -0.8218 -0.1030
vn -0.4454 0.8878 0.1161
vn 0.9985 -0.0509 -0.0211
vn -0.5489 -0.8247 -0.1363
vn -0.4500 0.8790 0.1579
vn 0.9985 -0.0511 -0.0218
vn -0.5491 -0.8236 -0.1421
vn -0.4504 0.8773 0.1658
vn 0.9988 0.0125 0.0464
vn -0.5654 -0.7716 -0.2913
vn -0.3993 0.8710 0.2862
vn 0.9886 -0.0394 0.1450
vn -0.5373 -0.6297 -0.5610
vn -0.4213 0.7628 0.4906
vn 0.9619 -0.1396 0.2353
vn -0.4615 -0.4205 -0.7812
vn -0.4541 0.6163 0.6434
vn 0.9112 -0.2762 0.3058
vn -0.3618 -0.1517 -0.9198
vn -0.5146 0.4514 0.7290
vt 0.019813 0.021880
vt 0.018656 0.021782
vt 0.018817 0.019756
vt 0.019976 0.019831
vt 0.086447 0.011450
vt 0.087600 0.011416
vt 0.087579 0.013557
vt 0.086427 0.013500
vt 0.018301 0.053777
vt 0.018510 0.052656
vt 0.020527 0.052853
vt 0.020384 0.053980
vt 0.019104 0.015040
vt 0.020244 0.015254
vt 0.087149 0.018393
vt 0.085997 0.018342
vt 0.025204 0.053100
vt 0.025195 0.054228
vt 0.019804 0.013088
vt 0.020844 0.013582
vt 0.087152 0.020403
vt 0.086001 0.020453
vt 0.026930 0.052778
vt 0.027114 0.053870
vt 0.020071 0.012741
vt 0.020857 0.013537
vt 0.087188 0.020775
vt 0.086039 0.020857
vt 0.051754 0.005007
vt 0.052143 0.006080
vt 0.052098 0.006076
vt 0.051387 0.005170
vt 0.074570 0.051572
vt 0.073600 0.052143
vt 0.072890 0.050556
vt 0.074051 0.050413
vt 0.039628 0.053864
vt 0.038495 0.054228
vt 0.037975 0.052611
vt 0.039116 0.052271
vt 0.051221 0.007197
vt 0.050169 0.006727
vt 0.073137 0.048023
vt 0.074303 0.048136
vt 0.037229 0.049980
vt 0.038389 0.049709
vt 0.050845 0.009452
vt 0.049702 0.009302
vt 0.073336 0.045969
vt 0.074502 0.046079
vt 0.036825 0.047786
vt 0.038005 0.047626
vt 0.050678 0.011486
vt 0.049527 0.011442
vt 0.073694 0.042153
vt 0.074862 0.042241
vt 0.036481 0.043849
vt 0.037667 0.043749
vt 0.050713 0.015276
vt 0.049561 0.015267
vt 0.073813 0.040043
vt 0.074984 0.040087
vt 0.036305 0.041699
vt 0.037492 0.041606
vt 0.050665 0.017399
vt 0.049514 0.017354
vt 0.073914 0.034911
vt 0.075085 0.034912
vt 0.035905 0.036429
vt 0.037095 0.036394
vt 0.050385 0.022492
vt 0.049234 0.022461
vt 0.073878 0.032843
vt 0.075049 0.032797
vt 0.035943 0.034205
vt 0.037130 0.034290
vt 0.050383 0.024568
vt 0.049232 0.024606
vt 0.073550 0.027577
vt 0.074721 0.027577
vt 0.036614 0.028923
vt 0.037805 0.028923
vt 0.050697 0.029672
vt 0.049546 0.029674
vt 0.073878 0.022288
vt 0.075049 0.022335
vt 0.035943 0.023641
vt 0.037130 0.023556
vt 0.050383 0.034844
vt 0.049232 0.034809
vt 0.073914 0.020220
vt 0.075085 0.020219
vt 0.035905 0.021418
vt 0.037095 0.021453
vt 0.050385 0.036925
vt 0.049234 0.036959
vt 0.073813 0.015103
vt 0.074984 0.015059
vt 0.036305 0.016147
vt 0.037492 0.016241
vt 0.050665 0.041984
vt 0.049514 0.042033
vt 0.073694 0.012998
vt 0.074862 0.012911
vt 0.036481 0.013997
vt 0.037667 0.014098
vt 0.050713 0.044086
vt 0.049561 0.044099
vt 0.073336 0.009190
vt 0.074502 0.009080
vt 0.036825 0.010061
vt 0.038005 0.010221
vt 0.050678 0.047829
vt 0.049527 0.047877
vt 0.073137 0.007148
vt 0.074303 0.007035
vt 0.037229 0.007867
vt 0.038389 0.008138
vt 0.050845 0.049824
vt 0.049702 0.049976
vt 0.072890 0.004642
vt 0.074051 0.004783
vt 0.037975 0.005235
vt 0.039116 0.005575
vt 0.051221 0.052018
vt 0.050169 0.052484
vt 0.073600 0.003096
vt 0.074570 0.003653
vt 0.038495 0.003618
vt 0.039628 0.003982
vt 0.052098 0.053146
vt 0.051387 0.054051
vt 0.005195 0.079257
vt 0.004398 0.078470
vt 0.004746 0.078204
vt 0.005240 0.079243
vt 0.086039 0.029974
vt 0.087188 0.030056
vt 0.087152 0.030428
vt 0.086001 0.030378
vt 0.052143 0.053144
vt 0.051754 0.054228
vt 0.006697 0.077504
vt 0.006911 0.078644
vt 0.087149 0.032438
vt 0.085997 0.032489
vt 0.027114 0.004040
vt 0.026930 0.005132
vt 0.025204 0.004810
vt 0.025195 0.003682
vt 0.011413 0.077217
vt 0.011488 0.078376
vt 0.087579 0.037275
vt 0.086427 0.037331
vt 0.020527 0.005057
vt 0.020384 0.003930
vt 0.013439 0.077056
vt 0.013537 0.078213
vt 0.087600 0.039415
vt 0.086447 0.039381
vt 0.018510 0.005254
vt 0.018301 0.004133
vt 0.019871 0.076423
vt 0.019828 0.077584
vt 0.087146 0.045885
vt 0.085997 0.045794
vt 0.012543 0.006114
vt 0.012145 0.005034
vt 0.021939 0.076782
vt 0.021592 0.077890
vt 0.087600 0.062518
vt 0.086437 0.062571
vt 0.086363 0.060550
vt 0.087527 0.060520
vt 0.010981 0.006897
vt 0.010293 0.005962
vt 0.025028 0.078267
vt 0.024429 0.079257
vt 0.086312 0.056964
vt 0.087475 0.056991
vt 0.008666 0.009136
vt 0.007734 0.008440
vt 0.003988 0.066743
vt 0.003545 0.065683
vt 0.005360 0.065082
vt 0.005570 0.066219
vt 0.086442 0.054909
vt 0.087600 0.055021
vt 0.007815 0.010729
vt 0.006716 0.010345
vt 0.009639 0.064772
vt 0.009719 0.065926
vt 0.060114 0.005071
vt 0.061253 0.004901
vt 0.061744 0.009207
vt 0.060599 0.009333
vt 0.007055 0.014906
vt 0.005910 0.014699
vt 0.011712 0.064628
vt 0.011789 0.065782
vt 0.061969 0.011278
vt 0.060823 0.011397
vt 0.006689 0.016991
vt 0.005542 0.016793
vt 0.016587 0.064305
vt 0.016649 0.065460
vt 0.062472 0.016167
vt 0.061323 0.016251
vt 0.005870 0.021883
vt 0.004715 0.021735
vt 0.018666 0.064217
vt 0.018702 0.065373
vt 0.062571 0.018301
vt 0.061420 0.018321
vt 0.005688 0.023950
vt 0.004525 0.023893
vt 0.023673 0.064112
vt 0.023673 0.065268
vt 0.062518 0.023307
vt 0.061366 0.023307
vt 0.005633 0.028955
vt 0.004470 0.028955
vt 0.028680 0.064217
vt 0.028643 0.065373
vt 0.062571 0.028314
vt 0.061420 0.028294
vt 0.005688 0.033960
vt 0.004525 0.034017
vt 0.030758 0.064305
vt 0.030697 0.065460
vt 0.062472 0.030448
vt 0.061323 0.030364
vt 0.005870 0.036027
vt 0.004715 0.036175
vt 0.035633 0.064628
vt 0.035556 0.065782
vt 0.061969 0.035337
vt 0.060823 0.035218
vt 0.006689 0.040919
vt 0.005542 0.041117
vt 0.037706 0.064772
vt 0.037626 0.065926
vt 0.061744 0.037407
vt 0.060599 0.037282
vt 0.007055 0.043004
vt 0.005910 0.043211
vt 0.041985 0.065082
vt 0.041776 0.066219
vt 0.061253 0.041714
vt 0.060114 0.041544
vt 0.007815 0.047181
vt 0.006716 0.047565
vt 0.043800 0.065683
vt 0.043357 0.066743
vt 0.034169 0.075878
vt 0.035327 0.075766
vt 0.035457 0.077821
vt 0.034294 0.077848
vt 0.008666 0.048774
vt 0.007734 0.049470
vt 0.020857 0.032772
vt 0.019868 0.033371
vt 0.018383 0.030281
vt 0.019490 0.029935
vt 0.035405 0.081407
vt 0.034242 0.081378
vt 0.010981 0.051013
vt 0.010293 0.051948
vt 0.018024 0.028214
vt 0.019184 0.028171
vt 0.035332 0.083428
vt 0.034169 0.083376
vt 0.012543 0.051796
vt 0.012145 0.052876
vt 0.085997 0.005037
vt 0.087146 0.004946
s 1
usemtl MAT_window_sides_Handpaint
f 641/881/536 642/882/537 645/883/538 644/884/539
f 642/885/537 643/886/540 646/887/541 645/888/538
f 643/889/540 641/890/536 644/891/539 646/892/541
f 644/884/539 645/883/538 648/893/542 647/894/543
f 645/888/538 646/887/541 649/895/544 648/896/542
f 646/892/541 644/891/539 647/897/543 649/898/544
f 647/894/543 648/893/542 651/899/545 650/900/546
f 648/896/542 649/895/544 652/901/547 651/902/545
f 649/898/544 647/897/543 650/903/546 652/904/547
f 650/900/546 651/899/545 654/905/548 653/906/549
f 651/902/545 652/901/547 655/907/550 654/908/548
f 652/909/547 650/910/546 653/911/549 655/912/550
f 653/913/549 654/914/548 657/915/551 656/916/552
f 654/917/548 655/918/550 658/919/553 657/920/551
f 655/912/550 653/911/549 656/921/552 658/922/553
f 656/916/552 657/915/551 660/923/554 659/924/555
f 657/920/551 658/919/553 661/925/556 660/926/554
f 658/922/553 656/921/552 659/927/555 661/928/556
f 659/924/555 660/923/554 663/929/557 662/930/558
f 660/926/554 661/925/556 664/931/559 663/932/557
f 661/928/556 659/927/555 662/933/558 664/934/559
f 662/930/558 663/929/557 666/935/560 665/936/561
f 663/932/557 664/931/559 667/937/562 666/938/560
f 664/934/559 662/933/558 665/939/561 667/940/562
f 665/936/561 666/935/560 669/941/563 668/942/564
f 666/938/560 667/937/562 670/943/565 669/944/563
f 667/940/562 665/939/561 668/945/564 670/946/565
f 668/942/564 669/941/563 672/947/566 671/948/567
f 669/944/563 670/943/565 673/949/568 672/950/566
f 670/946/565 668/945/564 671/951/567 673/952/568
f 671/948/567 672/947/566 675/953/569 674/954/570
f 672/950/566 673/949/568 676/955/571 675/956/569
f 673/952/568 671/951/567 674/957/570 676/958/571
f 674/954/570 675/953/569 678/959/572 677/960/573
f 675/956/569 676/955/571 679/961/574 678/962/572
f 676/958/571 674/957/570 677/963/573 679/964/574
f 677/960/573 678/959/572 681/965/575 680/966/576
f 678/962/572 679/961/574 682/967/577 681/968/575
f 679/964/574 677/963/573 680/969/576 682/970/577
f 680/966/576 681/965/575 684/971/578 683/972/579
f 681/968/575 682/967/577 685/973/580 684/974/578
f 682/970/577 680/969/576 683/975/579 685/976/580
f 683/972/579 684/971/578 687/977/581 686/978/582
f 684/974/578 685/973/580 688/979/583 687/980/581
f 685/976/580 683/975/579 686/981/582 688/982/583
f 686/978/582 687/977/581 690/983/584 689/984/585
f 687/980/581 688/979/583 691/985/586 690/986/584
f 688/982/583 686/981/582 689/987/585 691/988/586
f 689/984/585 690/983/584 693/989/587 692/990/588
f 690/986/584 691/985/586 694/991/589 693/992/587
f 691/988/586 689/987/585 692/993/588 694/994/589
f 692/990/588 693/989/587 696/995/590 695/996/591
f 693/992/587 694/991/589 697/997/592 696/998/590
f 694/994/589 692/993/588 695/999/591 697/1000/592
f 695/996/591 696/995/590 699/1001/593 698/1002/594
f 696/998/590 697/997/592 700/1003/595 699/1004/593
f 697/1000/592 695/999/591 698/1005/594 700/1006/595
f 698/1002/594 699/1001/593 702/1007/596 701/1008/597
f 699/1004/593 700/1003/595 703/1009/598 702/1010/596
f 700/1006/595 698/1005/594 701/1011/597 703/1012/598
f 701/1013/597 702/1014/596 705/1015/599 704/1016/600
f 702/1017/596 703/1018/598 706/1019/601 705/1020/599
f 703/1012/598 701/1011/597 704/1021/600 706/1022/601
f 704/1016/600 705/1015/599 708/1023/602 707/1024/603
f 705/1020/599 706/1019/601 709/1025/604 708/1026/602
f 706/1027/601 704/1028/600 707/1029/603 709/1030/604
f 707/1024/603 708/1023/602 711/1031/605 710/1032/606
f 708/1026/602 709/1025/604 712/1033/607 711/1034/605
f 709/1030/604 707/1029/603 710/1035/606 712/1036/607
f 710/1032/606 711/1031/605 714/1037/608 713/1038/609
f 711/1034/605 712/1033/607 715/1039/610 714/1040/608
f 712/1036/607 710/1035/606 713/1041/609 715/1042/610
f 713/1038/609 714/1037/608 717/1043/611 716/1044/612
f 714/1040/608 715/1039/610 718/1045/613 717/1046/611
f 715/1042/610 713/1041/609 716/1047/612 718/1048/613
f 716/1044/612 717/1043/611 720/1049/614 719/1050/615
f 717/1051/611 718/1052/613 721/1053/616 720/1054/614
f 718/1048/613 716/1047/612 719/1055/615 721/1056/616
f 719/1050/615 720/1049/614 723/1057/617 722/1058/618
f 720/1054/614 721/1053/616 724/1059/619 723/1060/617
f 721/1056/616 719/1055/615 722/1061/618 724/1062/619
f 722/1063/618 723/1064/617 726/1065/620 725/1066/621
f 723/1060/617 724/1059/619 727/1067/622 726/1068/620
f 724/1062/619 722/1061/618 725/1069/621 727/1070/622
f 725/1066/621 726/1065/620 729/1071/623 728/1072/624
f 726/1073/620 727/1074/622 730/1075/625 729/1076/623
f 727/1070/622 725/1069/621 728/1077/624 730/1078/625
f 728/1072/624 729/1071/623 732/1079/626 731/1080/627
f 729/1076/623 730/1075/625 733/1081/628 732/1082/626
f 730/1078/625 728/1077/624 731/1083/627 733/1084/628
f 731/1080/627 732/1079/626 735/1085/629 734/1086/630
f 732/1082/626 733/1081/628 736/1087/631 735/1088/629
f 733/1084/628 731/1083/627 734/1089/630 736/1090/631
f 734/1086/630 735/1085/629 738/1091/632 737/1092/633
f 735/1088/629 736/1087/631 739/1093/634 738/1094/632
f 736/1090/631 734/1089/630 737/1095/633 739/1096/634
f 737/1092/633 738/1091/632 741/1097/635 740/1098/636
f 738/1094/632 739/1093/634 742/1099/637 741/1100/635
f 739/1096/634 737/1095/633 740/1101/636 742/1102/637
f 740/1098/636 741/1097/635 744/1103/638 743/1104/639
f 741/1100/635 742/1099/637 745/1105/640 744/1106/638
f 742/1102/637 740/1101/636 743/1107/639 745/1108/640
f 743/1104/639 744/1103/638 747/1109/641 746/1110/642
f 744/1106/638 745/1105/640 748/1111/643 747/1112/641
f 745/1108/640 743/1107/639 746/1113/642 748/1114/643
f 746/1110/642 747/1109/641 750/1115/644 749/1116/645
f 747/1112/641 748/1111/643 751/1117/646 750/1118/644
f 748/1114/643 746/1113/642 749/1119/645 751/1120/646
f 749/1116/645 750/1115/644 753/1121/647 752/1122/648
f 750/1118/644 751/1117/646 754/1123/649 753/1124/647
f 751/1120/646 749/1119/645 752/1125/648 754/1126/649
f 752/1122/648 753/1121/647 756/1127/650 755/1128/651
f 753/1124/647 754/1123/649 757/1129/652 756/1130/650
f 754/1126/649 752/1125/648 755/1131/651 757/1132/652
f 755/1128/651 756/1127/650 759/1133/653 758/1134/654
f 756/1135/650 757/1136/652 760/1137/655 759/1138/653
f 757/1132/652 755/1131/651 758/1139/654 760/1140/655
f 758/1141/654 759/1142/653 762/1143/656 761/1144/657
f 759/1138/653 760/1137/655 763/1145/658 762/1146/656
f 760/1140/655 758/1139/654 761/1147/657 763/1148/658
f 761/1144/657 762/1143/656 765/1149/659 764/1150/660
f 762/1146/656 763/1145/658 766/1151/661 765/1152/659
f 763/1148/658 761/1147/657 764/1153/660 766/1154/661
f 764/1150/660 765/1149/659 642/882/537 641/881/536
f 765/1155/659 766/1156/661 643/886/540 642/885/537
f 766/1154/661 764/1153/660 641/890/536 643/889/540
